<svg width="317" height="266" viewBox="0 0 317 266" fill="none" xmlns="http://www.w3.org/2000/svg">
<path fill-rule="evenodd" clip-rule="evenodd" d="M167.675 13.2746C234.847 13.9238 288.825 65.7991 288.213 129.117C287.602 192.435 232.631 243.258 165.458 242.608C98.286 241.959 44.3078 190.084 44.9198 126.766C45.5318 63.4476 100.503 12.6253 167.675 13.2746Z" fill="#3E363F"/>
<path fill-rule="evenodd" clip-rule="evenodd" d="M78.7918 101.488C79.5643 102.401 79.9916 103.791 79.8542 104.952C83.964 100.226 87.8899 95.8756 91.3289 92.5003C103.742 80.3161 119.081 69.0037 135.736 64.222C143.857 61.8903 150.433 68.0337 148.125 75.3572C146.257 81.2836 140.391 88.2006 140.022 92.2459C139.501 97.9684 136.982 108.811 134.294 114.796C131.655 120.673 125.884 121.836 120.314 122.129C127.043 125.857 134.565 132.677 131.359 141.768C127.151 153.839 105.215 172.64 94.2409 162.669C87.431 156.482 82.1703 147.477 78.2635 138.166C77.9498 141.885 77.4569 144.554 77.1363 146.519C76.0354 153.265 72.8297 153.234 71.8277 146.468C71.536 144.498 71.104 141.818 70.8624 138.094C66.7763 147.327 61.3425 156.23 54.4143 162.284C43.2498 172.041 21.6807 152.82 17.7072 140.669C14.6774 131.518 22.33 124.845 29.1293 121.248C23.5663 120.847 17.8183 119.573 15.2937 113.646C12.7222 107.61 10.4133 96.7208 10.0024 90.9892C9.71162 86.9375 3.98107 79.9085 2.22823 73.9471C0.0619504 66.5803 6.75505 60.5652 14.8299 63.0534C31.3895 68.1561 46.5064 79.7629 58.682 92.1848C62.0479 95.6185 65.8797 100.033 69.8881 104.825C69.7236 103.589 70.1894 102.347 71.0396 101.404C67.6657 93.1949 63.3202 86.5125 57.7535 79.4742C55.9478 77.5106 58.7199 75.5985 60.3453 77.7441C65.7438 84.8705 69.5786 91.887 73.0043 100.047C74.2332 99.5733 75.6375 99.5898 76.8566 100.088C80.441 91.9921 84.4107 85.0509 89.9459 78.0303C91.6124 75.9165 94.3471 77.8818 92.5038 79.8101C86.8021 86.7395 82.3282 93.3366 78.7918 101.488" fill="black"/>
<path fill-rule="evenodd" clip-rule="evenodd" d="M21.3037 96.8459C29.0842 96.44 36.0671 96.6978 44.1097 98.3953C46.972 100.836 50.2339 103.256 53.8502 105.683C43.1108 104.336 32.2922 104.178 21.4946 104.878C21.1982 102.259 21.1581 99.4773 21.3037 96.8459" fill="#FF8000"/>
<path fill-rule="evenodd" clip-rule="evenodd" d="M35.1087 87.9764C36.2302 90.3623 38.251 92.9056 40.9222 95.5164C34.513 94.4297 27.9651 94.2568 21.4758 94.6022C21.6791 92.5299 21.9936 90.621 22.3802 89.0507C23.3681 85.0403 30.1733 85.787 35.1087 87.9764" fill="#FF8000"/>
<path fill-rule="evenodd" clip-rule="evenodd" d="M71.4207 113.608C67.5644 111.529 63.7698 109.348 60.0568 107.048C48.9578 100.17 39.5434 92.7524 36.9478 86.744C36.6448 78.1071 49.0503 89.1747 50.8921 90.9261C57.8572 97.5491 65.7131 106.332 71.4207 113.608" fill="#FF8000"/>
<path fill-rule="evenodd" clip-rule="evenodd" d="M17.8258 69.184C20.8088 69.7849 27.6338 72.4763 26.2745 75.7525C24.6452 79.6816 20.2959 84.7064 18.2595 82.8605C14.9934 79.8996 14.3834 75.0741 14.6939 72.0066C14.9584 69.3939 16.0017 68.8167 17.8258 69.184Z" fill="#FF8000"/>
<path fill-rule="evenodd" clip-rule="evenodd" d="M132.622 70.2935C129.628 70.8366 122.752 73.3956 124.048 76.6975C125.601 80.6573 129.853 85.7653 131.924 83.959C135.247 81.0619 135.95 76.249 135.699 73.1761C135.485 70.5588 134.453 69.9615 132.622 70.2935Z" fill="#FF8000"/>
<path fill-rule="evenodd" clip-rule="evenodd" d="M78.1777 113.674C82.0737 111.67 85.9097 109.562 89.6665 107.334C100.896 100.672 110.452 93.4377 113.164 87.4803C113.632 78.852 101.016 89.6768 99.141 91.3923C92.0491 97.8797 84.0247 106.509 78.1777 113.674Z" fill="#FF8000"/>
<path fill-rule="evenodd" clip-rule="evenodd" d="M114.979 88.7488C113.811 91.1124 111.74 93.6162 109.02 96.1748C115.449 95.2122 122 95.1659 128.482 95.6367C128.319 93.5609 128.041 91.6462 127.685 90.0687C126.775 86.0397 119.956 86.6551 114.979 88.7488Z" fill="#FF8000"/>
<path fill-rule="evenodd" clip-rule="evenodd" d="M95.8975 106.089C106.662 104.921 117.482 104.967 128.263 105.91C128.61 103.297 128.704 100.517 128.609 97.8832C121.139 97.3783 113.179 97.3871 105.855 98.9435C102.946 101.329 99.5605 103.733 95.8975 106.089Z" fill="#FF8000"/>
<path fill-rule="evenodd" clip-rule="evenodd" d="M127.899 108.12C115.71 107.027 103.518 107.168 91.3939 108.883C87.5189 111.202 82.337 114.185 78.3145 116.269C90.2126 118.208 106.464 119.808 121.094 118.26C124.802 117.868 126.901 113.104 127.899 108.12" fill="#FF8000"/>
<path fill-rule="evenodd" clip-rule="evenodd" d="M21.8173 107.057C34.0245 106.2 46.2119 106.577 58.3005 108.526C62.1299 110.92 67.2532 114.003 71.2347 116.164C59.3015 117.872 43.0224 119.158 28.4247 117.328C24.7247 116.863 22.7188 112.061 21.8173 107.057" fill="#FF8000"/>
<path fill-rule="evenodd" clip-rule="evenodd" d="M100.499 122.311C103.786 122.481 107.092 122.559 110.395 122.541C113.103 123.492 114.852 123.856 117.134 125.37C119.339 126.833 120.883 129.879 121.643 133.012C118.727 131.185 108.927 126.886 106.062 126.463C104.022 124.511 102.458 123.471 100.499 122.311" fill="#FF8000"/>
<path fill-rule="evenodd" clip-rule="evenodd" d="M89.7952 121.425C91.5534 121.626 93.3237 121.8 95.1032 121.948C100.327 124.49 108.49 128.97 107.69 135.535C107.53 136.859 107.084 136.896 105.589 136.333C104.423 135.842 103.018 134.894 101.518 133.682C97.2739 130.252 92.3879 124.835 89.7952 121.425" fill="#FF8000"/>
<path fill-rule="evenodd" clip-rule="evenodd" d="M122.117 135.873C122.391 138.973 121.991 140.94 119.877 143.515C117.095 140.448 113.925 137.228 109.906 135.027C109.997 132.979 109.438 131.138 108.465 129.488C113.116 131.246 117.935 133.268 122.117 135.873Z" fill="#FF8000"/>
<path fill-rule="evenodd" clip-rule="evenodd" d="M118.445 145.212C116.8 147.014 114.825 148.735 112.697 150.256C110.781 146.174 108.145 142.295 105.482 138.658C107.109 139.258 108.705 138.8 109.433 137.291C112.939 139.324 115.817 142.32 118.445 145.212" fill="#FF8000"/>
<path fill-rule="evenodd" clip-rule="evenodd" d="M84.1805 120.69C85.0681 120.822 85.96 120.947 86.8555 121.065C90.5223 126.256 95.5454 131.56 100.352 135.566C107.823 144.847 110.293 150.239 110.866 151.492C108.575 152.949 106.174 154.151 103.862 154.966C98.1111 143.161 91.8227 131.487 84.1805 120.69Z" fill="#FF8000"/>
<path fill-rule="evenodd" clip-rule="evenodd" d="M79.2971 119.89C79.9066 120 80.5186 120.106 81.1325 120.209C89.2313 131.279 95.7796 143.385 101.748 155.606C97.9009 156.571 94.5049 156.262 92.5848 153.987C92.4059 153.775 92.229 153.561 92.053 153.345C88.7399 141.906 84.3128 130.76 79.2971 119.89" fill="#FF8000"/>
<path fill-rule="evenodd" clip-rule="evenodd" d="M88.0221 147.703C83.797 140.986 80.6548 133.224 78.3303 125.652C78.33 124.765 78.324 123.875 78.3132 122.985C81.9638 131.07 85.2658 139.307 88.0221 147.703Z" fill="#FF8000"/>
<path fill-rule="evenodd" clip-rule="evenodd" d="M71.1059 122.916C67.2977 130.927 63.839 139.101 60.9214 147.441C65.2755 140.806 68.5669 133.107 71.0373 125.582C71.0546 124.695 71.0779 123.806 71.1059 122.916Z" fill="#FF8000"/>
<path fill-rule="evenodd" clip-rule="evenodd" d="M68.3409 120.085C60.0321 130.997 53.2474 142.974 47.0449 155.077C50.8727 156.116 54.2743 155.873 56.2379 153.635C56.4209 153.427 56.6025 153.216 56.7825 153.004C60.3162 141.63 64.9616 130.574 70.1832 119.802C69.5714 119.9 68.9571 119.994 68.3409 120.085" fill="#FF8000"/>
<path fill-rule="evenodd" clip-rule="evenodd" d="M62.6023 120.83C60.3302 124.083 54.1761 130.914 49.006 134.931C44.9073 139.898 40.8347 144.997 38.0079 150.788C40.2705 152.289 42.6484 153.538 44.9438 154.396C50.877 142.68 57.4723 131.155 65.2841 120.508C64.3941 120.622 63.5001 120.73 62.6023 120.83" fill="#FF8000"/>
<path fill-rule="evenodd" clip-rule="evenodd" d="M54.3394 121.554C49.0675 123.994 40.8198 128.316 41.492 134.895C41.6271 136.222 42.1996 136.27 43.5781 135.734C44.7531 135.265 46.1761 134.344 47.6988 133.162C52.0084 129.814 56.998 124.493 59.6563 121.134C57.8944 121.301 56.1212 121.441 54.3394 121.554" fill="#FF8000"/>
<path fill-rule="evenodd" clip-rule="evenodd" d="M36.2005 149.516C38.1957 145.469 40.912 141.654 43.6384 138.061C41.8983 138.579 40.4131 138.139 39.7143 136.617C36.1704 138.552 33.2354 141.488 30.5517 144.363C32.1622 146.196 34.1027 147.955 36.2005 149.516Z" fill="#FF8000"/>
<path fill-rule="evenodd" clip-rule="evenodd" d="M29.1532 142.639C32.0919 139.505 35.3341 136.334 39.2854 134.345C39.2346 132.296 39.8286 130.466 40.8332 128.834C36.6091 130.31 30.227 132.946 27.0607 134.954C26.8199 137.192 27.0273 139.239 27.7445 140.499C28.1511 141.213 28.6245 141.928 29.1532 142.639" fill="#FF8000"/>
<path fill-rule="evenodd" clip-rule="evenodd" d="M27.5903 132.104C28.9092 131.323 35.8127 127.9 43.2359 125.763C44.8707 124.205 46.8459 122.906 48.8092 121.816C45.5619 121.919 42.2982 121.932 39.0393 121.851C36.3128 122.75 34.5571 123.08 32.2465 124.549C30.0133 125.97 28.4108 128.985 27.5903 132.104" fill="#FF8000"/>
<path fill-rule="evenodd" clip-rule="evenodd" d="M48.2423 158.419C46.9239 158.406 45.8393 159.409 45.8273 160.651C45.8153 161.894 46.8803 162.918 48.1987 162.93C49.5169 162.943 50.6016 161.94 50.6136 160.697C50.6256 159.455 49.5605 158.431 48.2423 158.419ZM40.9088 157.188C39.5904 157.175 38.5058 158.179 38.4938 159.421C38.4818 160.664 39.5468 161.688 40.8651 161.7C42.1829 161.713 43.2681 160.71 43.2801 159.468C43.2922 158.225 42.2265 157.201 40.9088 157.188ZM34.6796 153.28C33.3616 153.267 32.2765 154.27 32.2645 155.513C32.2525 156.756 33.318 157.779 34.636 157.792C35.9541 157.805 37.039 156.802 37.051 155.559C37.0631 154.317 35.9977 153.293 34.6796 153.28ZM22.6302 129.745C21.312 129.732 20.2274 130.735 20.2154 131.978C20.2034 133.22 21.2684 134.244 22.5866 134.257C23.905 134.269 24.9896 133.266 25.0016 132.024C25.0136 130.782 23.9486 129.757 22.6302 129.745ZM36.0495 77.1956C34.732 77.2283 33.6867 78.2682 33.7229 79.5102C33.7591 80.7523 34.8635 81.7389 36.181 81.7062C37.4987 81.6735 38.5439 80.6339 38.5077 79.3916C38.4716 78.1493 37.3674 77.1629 36.0495 77.1956V77.1956ZM30.4686 73.465C29.1509 73.4977 28.1056 74.5376 28.1418 75.7797C28.178 77.0221 29.2822 78.0083 30.5999 77.9756C31.9177 77.9429 32.9626 76.9033 32.9267 75.661C32.8905 74.4189 31.7861 73.4323 30.4686 73.465ZM29.7961 79.7791C28.4782 79.8119 27.4332 80.8517 27.4694 82.0938C27.5053 83.3359 28.6097 84.3224 29.9273 84.2897C31.2452 84.257 32.2906 83.2171 32.2541 81.975C32.2178 80.7329 31.1136 79.7464 29.7961 79.7791V79.7791ZM12.8308 64.6898C11.5127 64.6771 10.4278 65.6801 10.4158 66.9225C10.4038 68.1652 11.4691 69.1889 12.7872 69.2017C14.1054 69.2144 15.1903 68.2115 15.2023 66.9688C15.2143 65.7264 14.149 64.7025 12.8308 64.6898ZM6.45855 66.7179C5.14021 66.7052 4.0553 67.708 4.04329 68.9507C4.03128 70.1933 5.0966 71.2169 6.41494 71.2297C7.73302 71.2424 8.81779 70.2395 8.8298 68.9969C8.84181 67.7542 7.77663 66.7306 6.45855 66.7179ZM7.86185 73.3296C6.54361 73.3168 5.45901 74.3197 5.447 75.5624C5.43499 76.8048 6.50001 77.8287 7.81824 77.8414C9.13632 77.8541 10.2212 76.8511 10.2332 75.6087C10.2453 74.366 9.17993 73.3423 7.86185 73.3296ZM10.9946 79.3762C9.67656 79.3634 8.59149 80.3665 8.57948 81.6089C8.56747 82.8515 9.63295 83.8753 10.951 83.888C12.2691 83.9008 13.354 82.8977 13.366 81.6551C13.378 80.4127 12.3127 79.3889 10.9946 79.3762ZM13.6716 85.4184C12.3536 85.4057 11.2685 86.4087 11.2565 87.6513C11.2445 88.8936 12.31 89.9175 13.628 89.9303C14.9461 89.943 16.031 88.9398 16.043 87.6975C16.055 86.455 14.9897 85.4311 13.6716 85.4184ZM14.7455 92.241C13.4272 92.2282 12.3425 93.2314 12.3305 94.4738C12.3185 95.7163 13.3835 96.7403 14.7019 96.7531C16.0201 96.7658 17.1049 95.7625 17.1169 94.5201C17.1289 93.2777 16.0637 92.2537 14.7455 92.241ZM16.0487 98.9146C14.7304 98.9019 13.6457 99.905 13.6337 101.148C13.6217 102.39 14.6867 103.414 16.0051 103.427C17.3233 103.439 18.4079 102.436 18.4199 101.194C18.4319 99.9512 17.3669 98.9274 16.0487 98.9146ZM17.512 105.59C16.1938 105.577 15.1091 106.58 15.0971 107.823C15.085 109.065 16.1502 110.089 17.4684 110.102C18.7865 110.115 19.8713 109.111 19.8833 107.869C19.8953 106.626 18.8301 105.602 17.512 105.59ZM21.6161 136.64C20.2978 136.627 19.2129 137.63 19.2009 138.873C19.1889 140.115 20.2542 141.139 21.5725 141.152C22.8905 141.165 23.9754 140.162 23.9874 138.919C23.9994 137.677 22.9341 136.653 21.6161 136.64ZM24.6788 143.017C23.3607 143.004 22.2758 144.007 22.2638 145.25C22.2517 146.492 23.3171 147.516 24.6351 147.529C25.9533 147.542 27.0382 146.539 27.0503 145.296C27.0623 144.054 25.9969 143.03 24.6788 143.017V143.017ZM29.2717 148.496C27.9535 148.483 26.8686 149.486 26.8566 150.729C26.8446 151.971 27.9099 152.995 29.2281 153.008C30.5461 153.02 31.6311 152.018 31.6431 150.775C31.6551 149.532 30.5897 148.509 29.2717 148.496ZM100.487 158.923C101.805 158.936 102.87 159.96 102.858 161.202C102.846 162.445 101.761 163.448 100.443 163.435C99.1247 163.423 98.0595 162.399 98.0715 161.156C98.0835 159.914 99.1683 158.911 100.487 158.923ZM107.842 157.835C109.161 157.848 110.226 158.872 110.214 160.115C110.202 161.357 109.117 162.36 107.799 162.347C106.481 162.335 105.415 161.31 105.427 160.068C105.439 158.826 106.524 157.822 107.842 157.835ZM114.146 154.048C115.464 154.061 116.529 155.085 116.517 156.327C116.505 157.57 115.42 158.573 114.102 158.56C112.784 158.547 111.719 157.524 111.731 156.281C111.743 155.038 112.828 154.036 114.146 154.048ZM126.648 130.75C127.966 130.763 129.031 131.787 129.019 133.029C129.007 134.272 127.923 135.275 126.604 135.262C125.286 135.249 124.221 134.226 124.233 132.983C124.245 131.741 125.33 130.737 126.648 130.75ZM114.247 77.9513C115.564 78.0094 116.589 79.0695 116.528 80.3106C116.468 81.5517 115.345 82.5168 114.028 82.4586C112.711 82.4004 111.686 81.3407 111.747 80.0995C111.807 78.8581 112.93 77.8931 114.247 77.9513ZM119.899 74.3294C121.216 74.3876 122.241 75.4475 122.18 76.6886C122.12 77.93 120.997 78.8951 119.68 78.8369C118.363 78.7787 117.339 77.7188 117.399 76.4774C117.459 75.2362 118.582 74.2712 119.899 74.3294ZM120.449 80.6555C121.766 80.7136 122.791 81.7731 122.731 83.0143C122.671 84.2557 121.547 85.2204 120.231 85.1622C118.914 85.104 117.889 84.0447 117.949 82.8033C118.009 81.5621 119.133 80.5973 120.449 80.6555V80.6555ZM137.703 65.8967C139.021 65.9095 140.086 66.9333 140.074 68.1757C140.062 69.4184 138.977 70.4213 137.659 70.4086C136.341 70.3958 135.276 69.3722 135.288 68.1295C135.3 66.887 136.385 65.884 137.703 65.8967ZM144.035 68.0476C145.353 68.0604 146.419 69.0839 146.407 70.3266C146.395 71.5692 145.31 72.5721 143.991 72.5594C142.673 72.5466 141.608 71.523 141.62 70.2804C141.632 69.0377 142.717 68.0349 144.035 68.0476ZM142.504 74.6309C143.822 74.6436 144.887 75.6673 144.875 76.91C144.863 78.1525 143.779 79.1555 142.46 79.1428C141.142 79.13 140.077 78.1062 140.089 76.8637C140.101 75.621 141.186 74.6182 142.504 74.6309ZM139.255 80.6158C140.573 80.6286 141.639 81.6524 141.627 82.8948C141.615 84.1374 140.529 85.1405 139.211 85.1277C137.893 85.115 136.828 84.0911 136.84 82.8486C136.852 81.6061 137.937 80.6031 139.255 80.6158ZM136.462 86.6052C137.78 86.6179 138.845 87.6418 138.833 88.8843C138.821 90.1266 137.736 91.1298 136.418 91.1171C135.1 91.1043 134.035 90.0804 134.047 88.838C134.059 87.5955 135.144 86.5925 136.462 86.6052ZM135.256 93.4057C136.575 93.4185 137.64 94.4424 137.628 95.6848C137.616 96.9273 136.531 97.9306 135.213 97.9178C133.894 97.9051 132.829 96.881 132.841 95.6386C132.853 94.3962 133.938 93.393 135.256 93.4057ZM133.824 100.053C135.143 100.066 136.208 101.09 136.196 102.332C136.184 103.575 135.099 104.578 133.781 104.565C132.462 104.552 131.397 103.528 131.409 102.286C131.421 101.043 132.506 100.04 133.824 100.053ZM132.232 106.698C133.55 106.711 134.616 107.735 134.604 108.978C134.592 110.22 133.507 111.223 132.189 111.211C130.87 111.198 129.805 110.174 129.817 108.932C129.829 107.689 130.914 106.686 132.232 106.698ZM127.529 137.664C128.847 137.676 129.912 138.7 129.9 139.943C129.888 141.185 128.803 142.188 127.485 142.176C126.167 142.163 125.102 141.139 125.114 139.897C125.126 138.654 126.211 137.651 127.529 137.664ZM124.343 143.98C125.661 143.993 126.727 145.017 126.715 146.259C126.703 147.502 125.618 148.505 124.3 148.492C122.981 148.479 121.916 147.456 121.928 146.213C121.94 144.971 123.025 143.968 124.343 143.98ZM119.645 149.369C120.964 149.382 122.029 150.406 122.017 151.648C122.005 152.891 120.92 153.894 119.602 153.881C118.284 153.868 117.218 152.845 117.23 151.602C117.242 150.36 118.327 149.357 119.645 149.369Z" fill="white"/>
<path d="M150.856 227.243C150.971 231.423 153.666 240.856 154.614 245.215C155.177 247.801 156.289 250.361 157.955 252.484C161.522 257.031 173.108 264.349 176.584 258.497C179.935 252.856 179.41 233.043 179.418 226.777C178.824 221.155 173.606 212.007 166.994 212.224C160.693 212.431 151.706 219.659 150.856 227.243V227.243Z" stroke="black" stroke-width="10.625" stroke-miterlimit="22.9256" stroke-linecap="round" stroke-linejoin="round"/>
<path fill-rule="evenodd" clip-rule="evenodd" d="M150.856 227.243C150.971 231.423 153.666 240.856 154.614 245.215C155.177 247.801 156.289 250.361 157.955 252.484C161.522 257.031 173.108 264.349 176.584 258.497C179.935 252.856 179.41 233.043 179.418 226.777C178.824 221.155 173.606 212.007 166.994 212.224C160.693 212.431 151.706 219.659 150.856 227.243" fill="#99CC33"/>
<path fill-rule="evenodd" clip-rule="evenodd" d="M151.416 224.715C155.199 227.258 160.661 228.707 165.805 229.681L163.802 232.626L161.39 231.388L158.75 232.27L157.152 230.839L154.868 230.826L153.864 228.846L151.993 228.948C151.523 228.443 151.358 227.897 150.888 227.391C150.846 226.533 151.25 225.374 151.416 224.715" fill="#FFFF66"/>
<path d="M157.504 193.758C165.278 200.899 176.482 208.608 187.391 215.192" stroke="#61BA94" stroke-width="14.9999" stroke-miterlimit="22.9256"/>
<path d="M178.485 196.063C186.26 203.204 176.482 208.608 187.391 215.191" stroke="#61BA94" stroke-width="12.5001" stroke-miterlimit="22.9256"/>
<path d="M158.765 215.299C158.429 215.095 158.331 214.673 158.547 214.356C158.763 214.039 159.212 213.948 159.548 214.152C162.006 215.644 165.184 216.665 167.746 216.844C170.334 217.024 173.186 216.616 175.347 216.161C175.738 216.079 176.126 216.312 176.214 216.68C176.301 217.049 176.055 217.414 175.664 217.496C173.389 217.975 170.397 218.399 167.642 218.207C164.862 218.013 161.453 216.931 158.765 215.299V215.299ZM155.174 218.43C154.855 218.201 154.793 217.771 155.036 217.471C155.278 217.17 155.734 217.113 156.053 217.342C158.61 219.177 162.527 220.711 166.152 221.176C169.944 221.663 174.251 221.301 177.575 220.266C177.955 220.149 178.365 220.344 178.49 220.703C178.615 221.062 178.408 221.448 178.028 221.565C174.503 222.662 169.967 223.042 165.963 222.528C162.095 222.031 157.933 220.409 155.174 218.43V218.43ZM152.065 221.607C151.88 221.273 152.018 220.861 152.372 220.688C152.726 220.514 153.163 220.644 153.348 220.978C154.114 222.357 157.996 224.388 162.043 225.306C165.593 226.11 169.556 226.419 172.558 225.59C172.941 225.484 173.344 225.652 173.456 226.014C173.569 226.375 173.349 226.754 172.965 226.859C169.7 227.762 165.466 227.486 161.707 226.634C157.29 225.633 153.018 223.322 152.065 221.607" fill="black"/>
<path d="M163.664 257.222C163.766 257.587 163.535 257.959 163.148 258.054C162.762 258.15 162.366 257.932 162.265 257.567C160.778 252.258 159.883 244.988 160.731 239.72C161.71 233.637 164.853 227.456 171.678 225.765C173.731 225.257 177.072 225.174 179.755 225.778C180.151 225.835 180.423 226.184 180.363 226.557C180.303 226.93 179.933 227.187 179.537 227.13C177.137 226.594 173.908 226.623 172.046 227.085C165.81 228.63 163.053 234.405 162.165 239.926C161.347 245.012 162.225 252.083 163.664 257.222" fill="black"/>
<path fill-rule="evenodd" clip-rule="evenodd" d="M170.812 212.687L172.775 206.342L170.06 205.573L168.078 211.688L170.812 212.687Z" fill="black"/>
<path fill-rule="evenodd" clip-rule="evenodd" d="M167.356 250.331C168.155 250.402 168.747 251.075 168.672 251.829C168.597 252.582 167.884 253.139 167.085 253.068C166.285 252.997 165.694 252.324 165.769 251.57C165.843 250.817 166.556 250.26 167.356 250.331Z" fill="#FFFF66"/>
<path fill-rule="evenodd" clip-rule="evenodd" d="M172.166 254.454C172.966 254.525 173.557 255.198 173.482 255.952C173.407 256.705 172.695 257.262 171.895 257.191C171.095 257.119 170.504 256.447 170.579 255.693C170.653 254.939 171.366 254.383 172.166 254.454Z" fill="#FFFF66"/>
<path d="M153.229 227.668C153.427 227.325 153.885 227.198 154.25 227.386C154.615 227.574 154.749 228.005 154.551 228.349C154.201 228.952 153.624 229.364 152.974 229.543C152.325 229.722 151.603 229.668 150.964 229.338C150.571 229.135 150.254 228.852 150.024 228.522C149.785 228.179 149.64 227.786 149.599 227.381C149.56 226.99 149.865 226.644 150.279 226.608C150.694 226.572 151.061 226.86 151.1 227.251C151.118 227.426 151.181 227.596 151.283 227.743C151.382 227.885 151.517 228.007 151.684 228.093C151.959 228.235 152.271 228.258 152.55 228.181C152.83 228.104 153.079 227.926 153.229 227.668" fill="black"/>
<path d="M156.688 229.408C156.822 229.038 157.25 228.84 157.644 228.967C158.026 229.09 158.235 229.474 158.124 229.836C157.932 230.495 157.477 231.019 156.897 231.334C156.312 231.652 155.597 231.76 154.893 231.581L154.886 231.579C154.183 231.399 153.622 230.968 153.286 230.419C153.276 230.403 153.267 230.387 153.259 230.371C152.942 229.828 152.838 229.173 153.021 228.529C153.128 228.151 153.54 227.925 153.941 228.026C154.343 228.127 154.582 228.515 154.476 228.894C154.399 229.167 154.441 229.446 154.573 229.679C154.58 229.688 154.586 229.698 154.592 229.708C154.739 229.948 154.979 230.134 155.278 230.21L155.279 230.21C155.58 230.287 155.888 230.239 156.141 230.102C156.395 229.964 156.593 229.737 156.673 229.456C156.677 229.44 156.683 229.424 156.688 229.409L156.688 229.408L156.688 229.408Z" fill="black"/>
<path d="M160.149 230.722C160.257 230.343 160.67 230.119 161.072 230.222C161.474 230.324 161.712 230.714 161.604 231.092C161.415 231.756 160.958 232.285 160.373 232.603C159.787 232.921 159.072 233.029 158.369 232.851L158.366 232.85L158.366 232.851C157.663 232.672 157.101 232.239 156.762 231.685C156.424 231.133 156.309 230.459 156.497 229.796C156.605 229.417 157.018 229.193 157.42 229.295C157.822 229.398 158.06 229.787 157.952 230.166C157.871 230.45 157.921 230.741 158.068 230.98C158.213 231.217 158.454 231.403 158.757 231.48L158.757 231.48C159.058 231.555 159.365 231.508 159.617 231.371C159.871 231.233 160.068 231.006 160.149 230.722" fill="black"/>
<path d="M163.649 231.294C163.981 231.057 164.454 231.119 164.705 231.432C164.956 231.745 164.891 232.191 164.56 232.427C164.287 232.622 163.972 232.768 163.632 232.853C163.306 232.933 162.958 232.956 162.605 232.911C161.882 232.817 161.267 232.455 160.857 231.946C160.448 231.439 160.244 230.784 160.342 230.103C160.398 229.715 160.777 229.443 161.189 229.496C161.601 229.55 161.89 229.908 161.834 230.296C161.792 230.587 161.881 230.87 162.058 231.09C162.234 231.309 162.498 231.464 162.807 231.504C162.96 231.524 163.109 231.514 163.249 231.48C163.393 231.444 163.529 231.38 163.649 231.294" fill="black"/>
<path d="M252.892 109.031C249.279 105.494 254.046 99.0114 259.238 99.7815C261.318 100.09 263.338 101.542 264.223 103.535L252.892 109.031Z" stroke="black" stroke-width="10.625" stroke-miterlimit="22.9256" stroke-linecap="round" stroke-linejoin="round"/>
<path fill-rule="evenodd" clip-rule="evenodd" d="M252.892 109.031C249.279 105.494 254.046 99.0114 259.238 99.7815C261.318 100.09 263.338 101.542 264.223 103.535L252.892 109.031Z" fill="#FFE000"/>
<path fill-rule="evenodd" clip-rule="evenodd" d="M254.093 103.097C253.401 103.146 252.878 103.717 252.931 104.37C252.982 105.022 253.589 105.515 254.281 105.467C254.973 105.419 255.496 104.847 255.444 104.195C255.392 103.542 254.785 103.049 254.093 103.097Z" fill="black"/>
<path d="M264.223 103.535C266.111 105.809 266.867 109.091 267.101 111.856C267.651 118.32 263.779 123.525 274.436 122.693C284.02 121.944 300.517 120.344 307.145 125.17C313.116 129.517 312.3 136.643 305.209 138.034C295.707 134.346 279.371 135.809 269.172 137.311C262.982 138.222 259.497 136.48 257.231 134.221C252.756 129.76 252.166 123.575 252.216 113.355C252.224 111.695 252.451 110.288 252.892 109.031C255.231 106.913 259.955 104.229 264.223 103.535Z" stroke="black" stroke-width="10.625" stroke-miterlimit="22.9256" stroke-linecap="round" stroke-linejoin="round"/>
<path fill-rule="evenodd" clip-rule="evenodd" d="M264.223 103.535C266.111 105.809 266.867 109.091 267.101 111.856C267.651 118.32 263.779 123.525 274.436 122.693C284.02 121.944 300.517 120.344 307.145 125.17C313.116 129.517 312.3 136.643 305.209 138.034C295.707 134.346 279.371 135.809 269.172 137.311C262.982 138.222 259.497 136.48 257.231 134.221C252.756 129.76 252.166 123.575 252.216 113.355C252.224 111.695 252.451 110.288 252.892 109.031C255.231 106.913 259.955 104.229 264.223 103.535Z" fill="#FAFF00"/>
<path d="M292.492 121.317C292.416 126.28 292.853 131.254 291.627 136.1C292.432 136.693 293.337 136.683 294.17 136.442C295.562 132.4 296.097 126.562 296.18 121.572C294.985 121.043 293.75 120.96 292.492 121.317Z" fill="black"/>
<path d="M267.165 117.759C265.016 120.513 258.367 125.988 253.466 128.229C253.48 129.402 253.733 129.829 254.287 130.361C259.112 128.695 264.181 125.544 267.718 121.845C267.82 120.778 268.13 119.32 267.165 117.759Z" fill="black"/>
<path d="M267.535 115.05C267.706 116.528 267.497 117.63 267.265 118.79C261.524 121.408 255.442 122.287 249.254 120.532C246.905 119.866 246.858 118.207 249.343 118.554C256.264 119.519 264.834 117.279 267.535 115.05Z" fill="black"/>
<path d="M275.443 104.941C276.172 102.092 278.064 97.7224 281.678 97.2606C283.38 97.0458 283.109 95.4864 281.407 95.7013C276.22 96.3643 274.45 100.185 272.769 104.393C271.981 106.364 269.922 107.842 267.593 109.411C261.926 113.231 253.269 114.718 249.098 114.251C246.573 113.968 246.899 115.671 249.165 116.271C254.123 117.585 262.019 116.375 267.97 112.978C271.601 110.904 274.516 108.565 275.443 104.941" fill="black"/>
<path d="M248.78 110.012C246.31 110.066 246.553 111.747 248.92 112C254.509 112.596 262.349 110.75 267.095 107.712C269.616 106.099 270.452 102.886 270.535 98.8561C270.605 95.4914 272.442 92.554 275.896 91.3197C277.508 90.7437 276.903 89.3281 275.291 89.9041C270.659 91.5593 268.063 94.8238 267.918 98.8114C267.87 101.159 267.214 103.198 265.721 104.57C261.677 108.286 254.227 109.894 248.78 110.012" fill="black"/>
<path d="M303.355 141.42C302.551 143.564 304.42 143.957 305.516 141.931C307.526 138.215 309.411 130.961 309.266 125.962C309.093 119.974 303.709 114.633 309.378 109.839C310.657 108.758 309.752 107.675 308.339 108.595C306.375 109.874 304.839 111.963 304.365 114.316C303.731 117.462 305.278 120.472 305.63 123.563C306.526 131.433 304.691 137.854 303.355 141.42V141.42ZM298.039 136.786C299.175 137.451 300.206 137.536 300.329 137.483C301.738 134.91 303.042 127.454 302.688 122.564C302.252 116.426 297.359 114.24 300.091 108.809C300.829 107.341 299.629 106.579 298.624 107.898C297.039 109.976 296.806 111.694 296.984 113.38C297.283 116.208 298.292 117.781 299.013 121.698C299.857 126.285 299.462 132.502 298.039 136.786V136.786ZM267.164 119.925C267.541 121.015 268.288 121.76 270.092 122.603C268.233 128.606 262.556 136.287 259.245 139.975C257.66 141.74 255.971 140.912 257.231 138.976C260.782 133.518 265.727 126.071 267.164 119.925V119.925ZM272.344 122.283C273.604 122.012 274.855 121.812 276.102 122.101C275.346 127.803 271.958 136.502 269.017 140.891C267.728 142.814 265.87 142.309 266.887 140.246C269.25 135.45 271.571 127.435 272.344 122.283V122.283ZM278.313 122.156C279.5 121.614 280.737 121.639 282.005 121.932C282.138 127.715 280.344 136.168 278.383 140.66C277.464 142.763 275.541 142.51 276.217 140.327C277.865 135.014 278.22 127.661 278.313 122.156V122.156ZM285.608 121.635C286.836 121.124 288.074 120.972 289.302 121.594C289.165 127.347 287.981 135.787 286.454 140.671C285.774 142.848 283.768 142.475 284.218 140.245C285.314 134.813 285.465 127.125 285.608 121.635" fill="black"/>
<path fill-rule="evenodd" clip-rule="evenodd" d="M226.96 117.854C225.77 113.855 226.71 108.591 223.391 105.859C216.406 100.108 211.781 104.262 205.774 95.6546C206.271 108.175 205.284 118.256 226.96 117.854V117.854ZM253.965 81.9672C254.392 87.155 254.015 91.5977 252.901 95.4456C252.218 94.2776 250.902 93.4834 249.387 93.4774C247.013 93.4681 245.147 95.4211 245.37 97.6296C244.654 96.5963 243.418 95.9111 242.012 95.9054C239.791 95.8966 237.984 97.5878 237.977 99.6822C237.972 101.239 238.964 102.581 240.386 103.171C238.277 103.281 236.6 104.924 236.593 106.942C236.586 109.036 238.383 110.741 240.604 110.75C238.487 112.973 230.79 116.376 228.284 116.822C229.798 108.122 226.272 100.487 228.74 94.452C231.368 88.0281 238.148 83.5308 253.965 81.9672" fill="#61BA94"/>
<path fill-rule="evenodd" clip-rule="evenodd" d="M136.193 32.2129C155.823 28.9616 172.615 35.8991 184.6 28.3794C193.024 23.0937 195.706 12.4285 201.258 4.45312C187.266 4.31788 171.956 -1.52722 159.281 4.0474C147.653 9.16167 143.892 22.5377 136.193 32.2129" fill="#61BA94"/>
<path d="M167.635 10.4377C169.716 10.4578 171.385 12.4895 171.361 14.9744C171.351 15.9962 171.056 16.9357 170.568 17.6866C168.651 18.4203 166.392 18.4662 164.562 17.6285C164.089 16.8683 163.813 15.9234 163.823 14.9016C163.847 12.4166 165.554 10.4176 167.635 10.4377V10.4377Z" stroke="black" stroke-width="9.99988" stroke-miterlimit="22.9256" stroke-linecap="round" stroke-linejoin="round"/>
<path fill-rule="evenodd" clip-rule="evenodd" d="M167.635 10.4377C169.716 10.4578 171.385 12.4895 171.361 14.9744C171.351 15.9962 171.056 16.9357 170.568 17.6866C168.651 18.4203 166.392 18.4662 164.562 17.6285C164.089 16.8683 163.813 15.9234 163.823 14.9016C163.847 12.4166 165.554 10.4176 167.635 10.4377" fill="#FFFFCC"/>
<path fill-rule="evenodd" clip-rule="evenodd" d="M260.004 53.1385C261.335 54.2725 263.064 50.1848 263.791 49.5157C264.419 48.9383 265.063 48.6346 265.724 48.6047C266.873 48.5525 267.913 49.4298 268.194 50.4454C268.309 50.8618 268.351 51.4945 268.321 52.3433L268.128 60.8043C268.094 61.9549 268.046 62.6713 267.982 62.9536C267.849 63.5474 267.128 64.2111 266.494 64.3229C266.193 64.3759 265.302 64.4123 263.82 64.4328L255.143 64.358C254.222 64.3472 253.553 64.2921 253.133 64.1926C252.038 63.933 251.318 62.9529 251.299 61.9066C251.287 61.246 251.524 60.6921 252.01 60.245C252.701 59.6092 257.182 57.8648 256.326 56.7489C254.634 54.854 252.88 53.0168 251.068 51.2404C246.909 47.1633 242.42 43.3886 237.651 39.9573C235.268 38.2427 232.812 36.6114 230.29 35.0691C229.076 34.327 228.724 32.7762 229.51 31.6322C230.296 30.4882 231.94 30.1579 233.155 30.9C235.788 32.5105 238.35 34.2129 240.835 36.0015C245.833 39.5981 250.54 43.5573 254.901 47.8258C256.664 49.5505 258.365 51.3224 260.004 53.1385" fill="black"/>
<path fill-rule="evenodd" clip-rule="evenodd" d="M101.911 29.2457C103.301 28.1783 99.2747 25.9431 98.6825 25.1634C98.1716 24.4903 97.95 23.8437 98.0183 23.2233C98.1366 22.1447 99.2131 21.3096 100.32 21.2032C100.774 21.1597 101.444 21.2169 102.329 21.3748L111.173 22.8469C112.374 23.0545 113.118 23.2094 113.404 23.3115C114.007 23.5267 114.594 24.2997 114.616 24.9071C114.626 25.1957 114.531 26.0316 114.329 27.4152L112.944 35.4885C112.794 36.3448 112.636 36.9605 112.469 37.336C112.031 38.3173 110.895 38.8377 109.795 38.6954C109.101 38.6058 108.556 38.3003 108.16 37.7793C107.597 37.0385 106.443 32.5973 105.144 33.2235C102.902 34.511 100.711 35.8648 98.576 37.2814C93.6749 40.5335 89.0412 44.1389 84.7251 48.0589C82.5685 50.0172 80.4884 52.0557 78.4915 54.1698C77.5307 55.1881 75.8513 55.2793 74.77 54.3722C73.6888 53.4654 73.5902 51.8823 74.551 50.864C76.636 48.6566 78.8069 46.5293 81.0565 44.4872C85.58 40.3805 90.44 36.6 95.5726 33.188C97.6463 31.8097 99.7605 30.4948 101.911 29.2457" fill="black"/>
<path fill-rule="evenodd" clip-rule="evenodd" d="M251.078 211.95C249.955 213.267 254.386 214.663 255.137 215.309C255.786 215.867 256.145 216.456 256.216 217.077C256.338 218.155 255.47 219.184 254.411 219.505C253.977 219.637 253.31 219.712 252.409 219.732L243.436 220.028C242.216 220.061 241.454 220.056 241.151 220.012C240.515 219.92 239.769 219.279 239.614 218.689C239.54 218.409 239.449 217.572 239.34 216.179L238.91 208.009C238.867 207.142 238.886 206.508 238.967 206.108C239.178 205.062 240.173 204.33 241.28 204.253C241.979 204.205 242.58 204.396 243.082 204.828C243.796 205.443 245.906 209.56 247.038 208.693C248.945 206.993 250.788 205.239 252.563 203.433C256.637 199.289 260.371 194.852 263.725 190.17C265.401 187.83 266.984 185.427 268.47 182.967C269.184 181.782 270.806 181.363 272.064 182.038C273.321 182.713 273.768 184.242 273.053 185.427C271.503 187.996 269.85 190.504 268.102 192.943C264.586 197.849 260.669 202.502 256.405 206.848C254.682 208.604 252.905 210.305 251.078 211.95" fill="black"/>
<path fill-rule="evenodd" clip-rule="evenodd" d="M74.6316 205.058C73.2701 203.956 71.6516 208.084 70.9427 208.77C70.3308 209.362 69.6949 209.681 69.035 209.727C67.8876 209.806 66.8244 208.954 66.5164 207.945C66.3903 207.532 66.331 206.9 66.3386 206.051L66.3039 197.588C66.3071 196.437 66.3366 195.72 66.3924 195.436C66.5099 194.839 67.2128 194.158 67.843 194.031C68.1426 193.971 69.0325 193.913 70.513 193.858L79.1893 193.726C80.1098 193.715 80.7811 193.753 81.2029 193.843C82.3053 194.076 83.0505 195.039 83.0974 196.084C83.1272 196.745 82.9052 197.304 82.4315 197.763C81.758 198.415 77.3258 200.265 78.2107 201.361C79.9534 203.214 81.7564 205.009 83.6153 206.742C87.8819 210.719 92.4704 214.385 97.3308 217.702C99.7588 219.359 102.257 220.931 104.82 222.413C106.054 223.126 106.447 224.668 105.692 225.83C104.938 226.993 103.302 227.362 102.068 226.649C99.3926 225.102 96.7855 223.461 94.2533 221.732C89.1612 218.256 84.3497 214.41 79.8749 210.247C78.0669 208.565 76.318 206.834 74.6316 205.058" fill="black"/>
<path d="M161.951 49H157.977V41.8613H161.951V42.5938H158.807V44.9033H161.771V45.626H158.807V48.2676H161.951V49ZM164.905 51.4023C164.202 51.4023 163.66 51.2705 163.279 51.0068C162.898 50.7464 162.708 50.3802 162.708 49.9082C162.708 49.5729 162.814 49.2865 163.025 49.0488C163.24 48.8112 163.536 48.6533 163.914 48.5752C163.774 48.5101 163.654 48.4124 163.553 48.2822C163.455 48.152 163.406 48.0023 163.406 47.833C163.406 47.6377 163.46 47.4668 163.567 47.3203C163.678 47.1706 163.846 47.0273 164.07 46.8906C163.79 46.7767 163.562 46.5846 163.387 46.3145C163.214 46.041 163.128 45.7236 163.128 45.3623C163.128 44.9782 163.208 44.651 163.367 44.3809C163.527 44.1074 163.758 43.8991 164.061 43.7559C164.363 43.6126 164.729 43.541 165.159 43.541C165.254 43.541 165.348 43.5459 165.442 43.5557C165.54 43.5622 165.633 43.5736 165.721 43.5898C165.809 43.6029 165.885 43.6191 165.95 43.6387H167.786V44.1611L166.8 44.2832C166.897 44.4102 166.979 44.5632 167.044 44.7422C167.109 44.9212 167.142 45.1198 167.142 45.3379C167.142 45.8717 166.961 46.2965 166.6 46.6123C166.238 46.9248 165.742 47.0811 165.11 47.0811C164.961 47.0811 164.808 47.068 164.651 47.042C164.492 47.1299 164.37 47.2275 164.285 47.335C164.204 47.4424 164.163 47.5661 164.163 47.7061C164.163 47.8102 164.194 47.8932 164.256 47.9551C164.321 48.0169 164.414 48.0625 164.534 48.0918C164.655 48.1178 164.799 48.1309 164.969 48.1309H165.911C166.494 48.1309 166.94 48.2529 167.249 48.4971C167.562 48.7412 167.718 49.0977 167.718 49.5664C167.718 50.1589 167.477 50.613 166.995 50.9287C166.513 51.2445 165.817 51.4023 164.905 51.4023ZM164.93 50.7676C165.372 50.7676 165.739 50.722 166.028 50.6309C166.321 50.543 166.539 50.4144 166.683 50.2451C166.829 50.0791 166.902 49.8805 166.902 49.6494C166.902 49.4346 166.854 49.2718 166.756 49.1611C166.658 49.0537 166.515 48.9821 166.326 48.9463C166.137 48.9072 165.906 48.8877 165.633 48.8877H164.705C164.464 48.8877 164.254 48.9251 164.075 49C163.896 49.0749 163.758 49.1855 163.66 49.332C163.566 49.4785 163.519 49.6608 163.519 49.8789C163.519 50.1686 163.641 50.3883 163.885 50.5381C164.129 50.6911 164.477 50.7676 164.93 50.7676ZM165.14 46.4902C165.527 46.4902 165.818 46.3926 166.014 46.1973C166.209 46.002 166.307 45.7171 166.307 45.3428C166.307 44.9424 166.207 44.6429 166.009 44.4443C165.81 44.2425 165.517 44.1416 165.13 44.1416C164.759 44.1416 164.472 44.2458 164.271 44.4541C164.072 44.6592 163.973 44.9603 163.973 45.3574C163.973 45.722 164.074 46.002 164.275 46.1973C164.477 46.3926 164.765 46.4902 165.14 46.4902ZM170.335 51.4023C169.632 51.4023 169.09 51.2705 168.709 51.0068C168.328 50.7464 168.138 50.3802 168.138 49.9082C168.138 49.5729 168.243 49.2865 168.455 49.0488C168.67 48.8112 168.966 48.6533 169.344 48.5752C169.204 48.5101 169.083 48.4124 168.982 48.2822C168.885 48.152 168.836 48.0023 168.836 47.833C168.836 47.6377 168.89 47.4668 168.997 47.3203C169.108 47.1706 169.275 47.0273 169.5 46.8906C169.22 46.7767 168.992 46.5846 168.816 46.3145C168.644 46.041 168.558 45.7236 168.558 45.3623C168.558 44.9782 168.637 44.651 168.797 44.3809C168.956 44.1074 169.188 43.8991 169.49 43.7559C169.793 43.6126 170.159 43.541 170.589 43.541C170.683 43.541 170.778 43.5459 170.872 43.5557C170.97 43.5622 171.062 43.5736 171.15 43.5898C171.238 43.6029 171.315 43.6191 171.38 43.6387H173.216V44.1611L172.229 44.2832C172.327 44.4102 172.409 44.5632 172.474 44.7422C172.539 44.9212 172.571 45.1198 172.571 45.3379C172.571 45.8717 172.391 46.2965 172.029 46.6123C171.668 46.9248 171.172 47.0811 170.54 47.0811C170.39 47.0811 170.237 47.068 170.081 47.042C169.922 47.1299 169.799 47.2275 169.715 47.335C169.633 47.4424 169.593 47.5661 169.593 47.7061C169.593 47.8102 169.624 47.8932 169.686 47.9551C169.751 48.0169 169.843 48.0625 169.964 48.0918C170.084 48.1178 170.229 48.1309 170.398 48.1309H171.341C171.924 48.1309 172.369 48.2529 172.679 48.4971C172.991 48.7412 173.147 49.0977 173.147 49.5664C173.147 50.1589 172.907 50.613 172.425 50.9287C171.943 51.2445 171.246 51.4023 170.335 51.4023ZM170.359 50.7676C170.802 50.7676 171.168 50.722 171.458 50.6309C171.751 50.543 171.969 50.4144 172.112 50.2451C172.259 50.0791 172.332 49.8805 172.332 49.6494C172.332 49.4346 172.283 49.2718 172.186 49.1611C172.088 49.0537 171.945 48.9821 171.756 48.9463C171.567 48.9072 171.336 48.8877 171.062 48.8877H170.135C169.894 48.8877 169.684 48.9251 169.505 49C169.326 49.0749 169.188 49.1855 169.09 49.332C168.995 49.4785 168.948 49.6608 168.948 49.8789C168.948 50.1686 169.07 50.3883 169.314 50.5381C169.559 50.6911 169.907 50.7676 170.359 50.7676ZM170.569 46.4902C170.957 46.4902 171.248 46.3926 171.443 46.1973C171.639 46.002 171.736 45.7171 171.736 45.3428C171.736 44.9424 171.637 44.6429 171.438 44.4443C171.24 44.2425 170.947 44.1416 170.56 44.1416C170.188 44.1416 169.902 44.2458 169.7 44.4541C169.502 44.6592 169.402 44.9603 169.402 45.3574C169.402 45.722 169.503 46.002 169.705 46.1973C169.907 46.3926 170.195 46.4902 170.569 46.4902Z" fill="white"/>
<path d="M151.998 185.098C151.516 185.098 151.091 184.998 150.724 184.8C150.356 184.601 150.069 184.299 149.864 183.892C149.659 183.485 149.557 182.972 149.557 182.354C149.557 181.706 149.664 181.177 149.879 180.767C150.097 180.353 150.396 180.047 150.777 179.849C151.158 179.65 151.591 179.551 152.076 179.551C152.343 179.551 152.6 179.578 152.848 179.634C153.098 179.686 153.303 179.753 153.463 179.834L153.219 180.513C153.056 180.448 152.867 180.389 152.652 180.337C152.441 180.285 152.242 180.259 152.057 180.259C151.686 180.259 151.376 180.339 151.129 180.498C150.885 180.658 150.701 180.892 150.577 181.201C150.457 181.51 150.396 181.891 150.396 182.344C150.396 182.777 150.455 183.146 150.572 183.452C150.693 183.758 150.87 183.993 151.104 184.155C151.342 184.315 151.638 184.395 151.993 184.395C152.276 184.395 152.532 184.365 152.76 184.307C152.988 184.245 153.194 184.173 153.38 184.092V184.814C153.201 184.906 153.001 184.976 152.779 185.024C152.561 185.073 152.301 185.098 151.998 185.098ZM155.46 177.402V179.673C155.46 179.803 155.457 179.935 155.45 180.068C155.444 180.199 155.432 180.319 155.416 180.43H155.47C155.58 180.241 155.72 180.083 155.89 179.956C156.062 179.826 156.257 179.728 156.476 179.663C156.694 179.595 156.925 179.561 157.169 179.561C157.599 179.561 157.957 179.629 158.243 179.766C158.533 179.902 158.749 180.114 158.893 180.4C159.039 180.687 159.112 181.058 159.112 181.514V185H158.312V181.567C158.312 181.121 158.209 180.788 158.004 180.566C157.802 180.345 157.491 180.234 157.071 180.234C156.674 180.234 156.357 180.311 156.119 180.464C155.885 180.614 155.715 180.835 155.611 181.128C155.51 181.421 155.46 181.779 155.46 182.202V185H154.649V177.402H155.46ZM163.214 179.551C163.321 179.551 163.434 179.557 163.551 179.57C163.668 179.58 163.772 179.595 163.863 179.614L163.761 180.366C163.673 180.343 163.575 180.326 163.468 180.312C163.36 180.299 163.259 180.293 163.165 180.293C162.95 180.293 162.747 180.337 162.555 180.425C162.366 180.509 162.2 180.633 162.057 180.796C161.913 180.955 161.801 181.149 161.72 181.377C161.638 181.602 161.598 181.852 161.598 182.129V185H160.782V179.648H161.456L161.544 180.635H161.578C161.689 180.436 161.822 180.256 161.979 180.093C162.135 179.927 162.315 179.795 162.521 179.697C162.729 179.6 162.96 179.551 163.214 179.551ZM164.029 179.648H164.898L166.08 182.754C166.148 182.936 166.212 183.112 166.271 183.281C166.329 183.447 166.381 183.607 166.427 183.76C166.472 183.913 166.508 184.061 166.534 184.204H166.568C166.614 184.041 166.679 183.828 166.764 183.564C166.848 183.298 166.939 183.026 167.037 182.749L168.155 179.648H169.029L166.7 185.786C166.576 186.115 166.432 186.401 166.266 186.646C166.103 186.89 165.904 187.077 165.67 187.207C165.436 187.34 165.152 187.407 164.82 187.407C164.667 187.407 164.532 187.397 164.415 187.378C164.298 187.362 164.197 187.342 164.112 187.319V186.67C164.184 186.686 164.27 186.701 164.371 186.714C164.475 186.727 164.583 186.733 164.693 186.733C164.895 186.733 165.069 186.694 165.216 186.616C165.366 186.541 165.494 186.431 165.602 186.284C165.709 186.138 165.802 185.964 165.88 185.762L166.173 185.01L164.029 179.648ZM173.346 183.535C173.346 183.877 173.259 184.165 173.087 184.399C172.918 184.631 172.674 184.805 172.354 184.922C172.039 185.039 171.661 185.098 171.222 185.098C170.847 185.098 170.523 185.068 170.25 185.01C169.977 184.951 169.737 184.868 169.532 184.761V184.014C169.75 184.121 170.011 184.219 170.313 184.307C170.616 184.395 170.925 184.438 171.241 184.438C171.703 184.438 172.039 184.364 172.247 184.214C172.455 184.064 172.56 183.861 172.56 183.604C172.56 183.457 172.517 183.328 172.433 183.218C172.351 183.104 172.213 182.995 172.018 182.891C171.822 182.783 171.552 182.666 171.207 182.539C170.865 182.409 170.569 182.28 170.318 182.153C170.071 182.023 169.879 181.865 169.742 181.68C169.609 181.494 169.542 181.253 169.542 180.957C169.542 180.505 169.724 180.158 170.089 179.917C170.457 179.673 170.938 179.551 171.534 179.551C171.856 179.551 172.158 179.583 172.438 179.648C172.721 179.71 172.984 179.795 173.229 179.902L172.955 180.552C172.734 180.457 172.498 180.378 172.247 180.312C171.996 180.247 171.741 180.215 171.48 180.215C171.106 180.215 170.818 180.277 170.616 180.4C170.418 180.524 170.318 180.693 170.318 180.908C170.318 181.074 170.364 181.211 170.455 181.318C170.549 181.426 170.699 181.527 170.904 181.621C171.109 181.715 171.38 181.826 171.715 181.953C172.05 182.077 172.34 182.205 172.584 182.339C172.828 182.469 173.015 182.629 173.146 182.817C173.279 183.003 173.346 183.242 173.346 183.535ZM176.651 179.561C177.289 179.561 177.763 179.704 178.072 179.99C178.382 180.277 178.536 180.734 178.536 181.362V185H177.945L177.789 184.209H177.75C177.6 184.404 177.444 184.569 177.281 184.702C177.118 184.832 176.93 184.932 176.715 185C176.503 185.065 176.243 185.098 175.934 185.098C175.608 185.098 175.318 185.041 175.064 184.927C174.814 184.813 174.615 184.64 174.469 184.409C174.326 184.178 174.254 183.885 174.254 183.53C174.254 182.996 174.465 182.586 174.889 182.3C175.312 182.013 175.956 181.857 176.822 181.831L177.745 181.792V181.465C177.745 181.003 177.646 180.679 177.447 180.493C177.249 180.308 176.969 180.215 176.607 180.215C176.327 180.215 176.061 180.256 175.807 180.337C175.553 180.418 175.312 180.514 175.084 180.625L174.835 180.01C175.076 179.886 175.353 179.78 175.665 179.692C175.978 179.604 176.306 179.561 176.651 179.561ZM177.735 182.363L176.92 182.397C176.253 182.424 175.782 182.533 175.509 182.725C175.235 182.917 175.099 183.188 175.099 183.54C175.099 183.846 175.191 184.072 175.377 184.219C175.562 184.365 175.808 184.438 176.114 184.438C176.59 184.438 176.979 184.307 177.281 184.043C177.584 183.779 177.735 183.384 177.735 182.856V182.363ZM181.021 185H180.206V177.402H181.021V185ZM183.546 179.648V185H182.735V179.648H183.546ZM183.15 177.646C183.284 177.646 183.398 177.69 183.492 177.778C183.59 177.863 183.639 177.996 183.639 178.179C183.639 178.358 183.59 178.491 183.492 178.579C183.398 178.667 183.284 178.711 183.15 178.711C183.01 178.711 182.893 178.667 182.799 178.579C182.708 178.491 182.662 178.358 182.662 178.179C182.662 177.996 182.708 177.863 182.799 177.778C182.893 177.69 183.01 177.646 183.15 177.646ZM188.727 183.535C188.727 183.877 188.64 184.165 188.468 184.399C188.299 184.631 188.054 184.805 187.735 184.922C187.42 185.039 187.042 185.098 186.603 185.098C186.228 185.098 185.904 185.068 185.631 185.01C185.357 184.951 185.118 184.868 184.913 184.761V184.014C185.131 184.121 185.392 184.219 185.694 184.307C185.997 184.395 186.306 184.438 186.622 184.438C187.084 184.438 187.42 184.364 187.628 184.214C187.836 184.064 187.94 183.861 187.94 183.604C187.94 183.457 187.898 183.328 187.813 183.218C187.732 183.104 187.594 182.995 187.398 182.891C187.203 182.783 186.933 182.666 186.588 182.539C186.246 182.409 185.95 182.28 185.699 182.153C185.452 182.023 185.26 181.865 185.123 181.68C184.99 181.494 184.923 181.253 184.923 180.957C184.923 180.505 185.105 180.158 185.47 179.917C185.838 179.673 186.319 179.551 186.915 179.551C187.237 179.551 187.538 179.583 187.818 179.648C188.102 179.71 188.365 179.795 188.609 179.902L188.336 180.552C188.115 180.457 187.879 180.378 187.628 180.312C187.377 180.247 187.122 180.215 186.861 180.215C186.487 180.215 186.199 180.277 185.997 180.4C185.799 180.524 185.699 180.693 185.699 180.908C185.699 181.074 185.745 181.211 185.836 181.318C185.93 181.426 186.08 181.527 186.285 181.621C186.49 181.715 186.76 181.826 187.096 181.953C187.431 182.077 187.721 182.205 187.965 182.339C188.209 182.469 188.396 182.629 188.526 182.817C188.66 183.003 188.727 183.242 188.727 183.535Z" fill="white"/>
<path d="M62.9766 169.861H64.998C65.89 169.861 66.5605 169.995 67.0098 170.262C67.459 170.529 67.6836 170.983 67.6836 171.624C67.6836 171.901 67.6299 172.15 67.5225 172.371C67.4183 172.589 67.2653 172.77 67.0635 172.913C66.8617 173.056 66.6126 173.156 66.3164 173.211V173.26C66.6289 173.309 66.9056 173.398 67.1465 173.528C67.3874 173.659 67.5762 173.841 67.7129 174.075C67.8496 174.31 67.918 174.607 67.918 174.969C67.918 175.408 67.8154 175.779 67.6104 176.082C67.4085 176.385 67.1221 176.614 66.751 176.771C66.3799 176.924 65.9404 177 65.4326 177H62.9766V169.861ZM63.8066 172.923H65.1738C65.7956 172.923 66.2253 172.82 66.4629 172.615C66.7038 172.41 66.8242 172.111 66.8242 171.717C66.8242 171.31 66.681 171.017 66.3945 170.838C66.1113 170.659 65.6589 170.569 65.0371 170.569H63.8066V172.923ZM63.8066 173.621V176.292H65.291C65.9258 176.292 66.375 176.168 66.6387 175.921C66.9023 175.67 67.0342 175.333 67.0342 174.91C67.0342 174.64 66.974 174.409 66.8535 174.217C66.7363 174.025 66.5443 173.878 66.2773 173.777C66.0137 173.673 65.6605 173.621 65.2178 173.621H63.8066ZM73.7383 171.648V177H73.0742L72.957 176.248H72.9131C72.8024 176.434 72.6592 176.59 72.4834 176.717C72.3076 176.844 72.109 176.938 71.8877 177C71.6696 177.065 71.4368 177.098 71.1895 177.098C70.7663 177.098 70.4115 177.029 70.125 176.893C69.8385 176.756 69.6221 176.544 69.4756 176.258C69.3324 175.971 69.2607 175.604 69.2607 175.154V171.648H70.0811V175.096C70.0811 175.542 70.182 175.875 70.3838 176.097C70.5856 176.315 70.8932 176.424 71.3066 176.424C71.7038 176.424 72.0195 176.349 72.2539 176.199C72.4915 176.049 72.6624 175.83 72.7666 175.54C72.8708 175.247 72.9229 174.889 72.9229 174.466V171.648H73.7383ZM77.1807 176.434C77.3141 176.434 77.4508 176.422 77.5908 176.399C77.7308 176.377 77.8447 176.349 77.9326 176.316V176.946C77.8382 176.989 77.7064 177.024 77.5371 177.054C77.3711 177.083 77.2083 177.098 77.0488 177.098C76.7656 177.098 76.5085 177.049 76.2773 176.951C76.0462 176.85 75.8607 176.681 75.7207 176.443C75.584 176.206 75.5156 175.877 75.5156 175.457V172.283H74.7539V171.888L75.5205 171.57L75.8428 170.408H76.3311V171.648H77.8984V172.283H76.3311V175.433C76.3311 175.768 76.4076 176.019 76.5605 176.185C76.7168 176.351 76.9235 176.434 77.1807 176.434ZM80.7451 176.434C80.8786 176.434 81.0153 176.422 81.1553 176.399C81.2952 176.377 81.4092 176.349 81.4971 176.316V176.946C81.4027 176.989 81.2708 177.024 81.1016 177.054C80.9355 177.083 80.7728 177.098 80.6133 177.098C80.3301 177.098 80.0729 177.049 79.8418 176.951C79.6107 176.85 79.4251 176.681 79.2852 176.443C79.1484 176.206 79.0801 175.877 79.0801 175.457V172.283H78.3184V171.888L79.085 171.57L79.4072 170.408H79.8955V171.648H81.4629V172.283H79.8955V175.433C79.8955 175.768 79.972 176.019 80.125 176.185C80.2812 176.351 80.488 176.434 80.7451 176.434ZM84.6416 171.551C85.0973 171.551 85.488 171.652 85.8135 171.854C86.139 172.055 86.388 172.339 86.5605 172.703C86.7331 173.064 86.8193 173.488 86.8193 173.973V174.476H83.123C83.1328 175.104 83.2891 175.582 83.5918 175.911C83.8945 176.24 84.321 176.404 84.8711 176.404C85.2096 176.404 85.5091 176.373 85.7695 176.312C86.0299 176.25 86.3001 176.159 86.5801 176.038V176.751C86.3099 176.871 86.0413 176.959 85.7744 177.015C85.5107 177.07 85.1982 177.098 84.8369 177.098C84.3226 177.098 83.8734 176.993 83.4893 176.785C83.1084 176.574 82.8122 176.264 82.6006 175.857C82.389 175.451 82.2832 174.952 82.2832 174.363C82.2832 173.787 82.3792 173.289 82.5713 172.869C82.7666 172.446 83.04 172.12 83.3916 171.893C83.7464 171.665 84.1631 171.551 84.6416 171.551ZM84.6318 172.215C84.1989 172.215 83.8538 172.356 83.5967 172.64C83.3395 172.923 83.1865 173.318 83.1377 173.826H85.9697C85.9665 173.507 85.916 173.227 85.8184 172.986C85.724 172.742 85.5791 172.553 85.3838 172.42C85.1885 172.283 84.9378 172.215 84.6318 172.215ZM90.6279 171.551C90.7354 171.551 90.8477 171.557 90.9648 171.57C91.082 171.58 91.1862 171.595 91.2773 171.614L91.1748 172.366C91.0869 172.343 90.9893 172.326 90.8818 172.312C90.7744 172.299 90.6735 172.293 90.5791 172.293C90.3643 172.293 90.1608 172.337 89.9688 172.425C89.7799 172.509 89.6139 172.633 89.4707 172.796C89.3275 172.955 89.2152 173.149 89.1338 173.377C89.0524 173.602 89.0117 173.852 89.0117 174.129V177H88.1963V171.648H88.8701L88.958 172.635H88.9922C89.1029 172.436 89.2363 172.256 89.3926 172.093C89.5488 171.927 89.7295 171.795 89.9346 171.697C90.1429 171.6 90.374 171.551 90.6279 171.551ZM94.6709 172.283H93.3379V177H92.5273V172.283H91.5801V171.893L92.5273 171.624V171.268C92.5273 170.818 92.5941 170.454 92.7275 170.174C92.861 169.891 93.0547 169.682 93.3086 169.549C93.5625 169.415 93.8717 169.349 94.2363 169.349C94.4414 169.349 94.6286 169.367 94.7979 169.402C94.9704 169.438 95.1217 169.479 95.252 169.524L95.042 170.164C94.9313 170.128 94.806 170.096 94.666 170.066C94.5293 170.034 94.3893 170.018 94.2461 170.018C93.9368 170.018 93.7074 170.118 93.5576 170.32C93.4111 170.519 93.3379 170.831 93.3379 171.258V171.648H94.6709V172.283ZM96.4678 177H95.6523V169.402H96.4678V177ZM97.332 171.648H98.2012L99.3828 174.754C99.4512 174.936 99.5146 175.112 99.5732 175.281C99.6318 175.447 99.6839 175.607 99.7295 175.76C99.7751 175.913 99.8109 176.061 99.8369 176.204H99.8711C99.9167 176.041 99.9818 175.828 100.066 175.564C100.151 175.298 100.242 175.026 100.34 174.749L101.458 171.648H102.332L100.003 177.786C99.8792 178.115 99.7344 178.401 99.5684 178.646C99.4056 178.89 99.207 179.077 98.9727 179.207C98.7383 179.34 98.4551 179.407 98.123 179.407C97.9701 179.407 97.835 179.397 97.7178 179.378C97.6006 179.362 97.4997 179.342 97.415 179.319V178.67C97.4867 178.686 97.5729 178.701 97.6738 178.714C97.778 178.727 97.8854 178.733 97.9961 178.733C98.1979 178.733 98.3721 178.694 98.5186 178.616C98.6683 178.541 98.7969 178.431 98.9043 178.284C99.0117 178.138 99.1045 177.964 99.1826 177.762L99.4756 177.01L97.332 171.648Z" fill="white"/>
<path d="M236.998 154.098C236.516 154.098 236.091 153.998 235.724 153.8C235.356 153.601 235.069 153.299 234.864 152.892C234.659 152.485 234.557 151.972 234.557 151.354C234.557 150.706 234.664 150.177 234.879 149.767C235.097 149.353 235.396 149.047 235.777 148.849C236.158 148.65 236.591 148.551 237.076 148.551C237.343 148.551 237.6 148.578 237.848 148.634C238.098 148.686 238.303 148.753 238.463 148.834L238.219 149.513C238.056 149.448 237.867 149.389 237.652 149.337C237.441 149.285 237.242 149.259 237.057 149.259C236.686 149.259 236.376 149.339 236.129 149.498C235.885 149.658 235.701 149.892 235.577 150.201C235.457 150.51 235.396 150.891 235.396 151.344C235.396 151.777 235.455 152.146 235.572 152.452C235.693 152.758 235.87 152.993 236.104 153.155C236.342 153.315 236.638 153.395 236.993 153.395C237.276 153.395 237.532 153.365 237.76 153.307C237.988 153.245 238.194 153.173 238.38 153.092V153.814C238.201 153.906 238.001 153.976 237.779 154.024C237.561 154.073 237.301 154.098 236.998 154.098ZM241.651 148.561C242.289 148.561 242.763 148.704 243.072 148.99C243.382 149.277 243.536 149.734 243.536 150.362V154H242.945L242.789 153.209H242.75C242.6 153.404 242.444 153.569 242.281 153.702C242.118 153.832 241.93 153.932 241.715 154C241.503 154.065 241.243 154.098 240.934 154.098C240.608 154.098 240.318 154.041 240.064 153.927C239.814 153.813 239.615 153.64 239.469 153.409C239.326 153.178 239.254 152.885 239.254 152.53C239.254 151.996 239.465 151.586 239.889 151.3C240.312 151.013 240.956 150.857 241.822 150.831L242.745 150.792V150.465C242.745 150.003 242.646 149.679 242.447 149.493C242.249 149.308 241.969 149.215 241.607 149.215C241.327 149.215 241.061 149.256 240.807 149.337C240.553 149.418 240.312 149.514 240.084 149.625L239.835 149.01C240.076 148.886 240.353 148.78 240.665 148.692C240.978 148.604 241.306 148.561 241.651 148.561ZM242.735 151.363L241.92 151.397C241.253 151.424 240.782 151.533 240.509 151.725C240.235 151.917 240.099 152.188 240.099 152.54C240.099 152.846 240.191 153.072 240.377 153.219C240.562 153.365 240.808 153.438 241.114 153.438C241.59 153.438 241.979 153.307 242.281 153.043C242.584 152.779 242.735 152.384 242.735 151.856V151.363ZM246.935 153.434C247.068 153.434 247.205 153.422 247.345 153.399C247.485 153.377 247.599 153.349 247.687 153.316V153.946C247.592 153.989 247.46 154.024 247.291 154.054C247.125 154.083 246.962 154.098 246.803 154.098C246.52 154.098 246.262 154.049 246.031 153.951C245.8 153.85 245.615 153.681 245.475 153.443C245.338 153.206 245.27 152.877 245.27 152.457V149.283H244.508V148.888L245.274 148.57L245.597 147.408H246.085V148.648H247.652V149.283H246.085V152.433C246.085 152.768 246.161 153.019 246.314 153.185C246.471 153.351 246.677 153.434 246.935 153.434ZM250.831 148.551C251.287 148.551 251.677 148.652 252.003 148.854C252.328 149.055 252.577 149.339 252.75 149.703C252.923 150.064 253.009 150.488 253.009 150.973V151.476H249.312C249.322 152.104 249.479 152.582 249.781 152.911C250.084 153.24 250.51 153.404 251.061 153.404C251.399 153.404 251.699 153.373 251.959 153.312C252.219 153.25 252.49 153.159 252.77 153.038V153.751C252.499 153.871 252.231 153.959 251.964 154.015C251.7 154.07 251.388 154.098 251.026 154.098C250.512 154.098 250.063 153.993 249.679 153.785C249.298 153.574 249.002 153.264 248.79 152.857C248.578 152.451 248.473 151.952 248.473 151.363C248.473 150.787 248.569 150.289 248.761 149.869C248.956 149.446 249.229 149.12 249.581 148.893C249.936 148.665 250.353 148.551 250.831 148.551ZM250.821 149.215C250.388 149.215 250.043 149.356 249.786 149.64C249.529 149.923 249.376 150.318 249.327 150.826H252.159C252.156 150.507 252.105 150.227 252.008 149.986C251.913 149.742 251.769 149.553 251.573 149.42C251.378 149.283 251.127 149.215 250.821 149.215ZM256.817 148.551C256.925 148.551 257.037 148.557 257.154 148.57C257.271 148.58 257.376 148.595 257.467 148.614L257.364 149.366C257.276 149.343 257.179 149.326 257.071 149.312C256.964 149.299 256.863 149.293 256.769 149.293C256.554 149.293 256.35 149.337 256.158 149.425C255.969 149.509 255.803 149.633 255.66 149.796C255.517 149.955 255.405 150.149 255.323 150.377C255.242 150.602 255.201 150.852 255.201 151.129V154H254.386V148.648H255.06L255.147 149.635H255.182C255.292 149.436 255.426 149.256 255.582 149.093C255.738 148.927 255.919 148.795 256.124 148.697C256.332 148.6 256.563 148.551 256.817 148.551ZM260.992 148.551C261.66 148.551 262.192 148.78 262.589 149.239C262.986 149.698 263.185 150.388 263.185 151.31C263.185 151.918 263.093 152.429 262.911 152.843C262.729 153.256 262.472 153.569 262.14 153.78C261.811 153.992 261.422 154.098 260.973 154.098C260.689 154.098 260.44 154.06 260.226 153.985C260.011 153.91 259.827 153.81 259.674 153.683C259.521 153.556 259.394 153.417 259.293 153.268H259.234C259.244 153.395 259.256 153.548 259.269 153.727C259.285 153.906 259.293 154.062 259.293 154.195V156.393H258.478V148.648H259.146L259.254 149.439H259.293C259.397 149.277 259.524 149.129 259.674 148.995C259.824 148.858 260.006 148.751 260.221 148.673C260.439 148.591 260.696 148.551 260.992 148.551ZM260.851 149.234C260.479 149.234 260.18 149.306 259.952 149.449C259.728 149.592 259.563 149.807 259.459 150.094C259.355 150.377 259.299 150.733 259.293 151.163V151.319C259.293 151.772 259.342 152.154 259.439 152.467C259.54 152.779 259.705 153.017 259.933 153.18C260.164 153.342 260.473 153.424 260.86 153.424C261.192 153.424 261.469 153.334 261.69 153.155C261.912 152.976 262.076 152.727 262.184 152.408C262.294 152.086 262.35 151.716 262.35 151.3C262.35 150.668 262.226 150.167 261.979 149.796C261.734 149.422 261.358 149.234 260.851 149.234ZM265.411 148.648V154H264.601V148.648H265.411ZM265.016 146.646C265.149 146.646 265.263 146.69 265.357 146.778C265.455 146.863 265.504 146.996 265.504 147.179C265.504 147.358 265.455 147.491 265.357 147.579C265.263 147.667 265.149 147.711 265.016 147.711C264.876 147.711 264.758 147.667 264.664 147.579C264.573 147.491 264.527 147.358 264.527 147.179C264.527 146.996 264.573 146.863 264.664 146.778C264.758 146.69 264.876 146.646 265.016 146.646ZM267.945 154H267.13V146.402H267.945V154ZM270.475 154H269.659V146.402H270.475V154ZM274.19 148.561C274.828 148.561 275.302 148.704 275.611 148.99C275.921 149.277 276.075 149.734 276.075 150.362V154H275.484L275.328 153.209H275.289C275.139 153.404 274.983 153.569 274.82 153.702C274.658 153.832 274.469 153.932 274.254 154C274.042 154.065 273.782 154.098 273.473 154.098C273.147 154.098 272.857 154.041 272.604 153.927C272.353 153.813 272.154 153.64 272.008 153.409C271.865 153.178 271.793 152.885 271.793 152.53C271.793 151.996 272.005 151.586 272.428 151.3C272.851 151.013 273.495 150.857 274.361 150.831L275.284 150.792V150.465C275.284 150.003 275.185 149.679 274.986 149.493C274.788 149.308 274.508 149.215 274.146 149.215C273.867 149.215 273.6 149.256 273.346 149.337C273.092 149.418 272.851 149.514 272.623 149.625L272.374 149.01C272.615 148.886 272.892 148.78 273.204 148.692C273.517 148.604 273.845 148.561 274.19 148.561ZM275.274 151.363L274.459 151.397C273.792 151.424 273.321 151.533 273.048 151.725C272.774 151.917 272.638 152.188 272.638 152.54C272.638 152.846 272.73 153.072 272.916 153.219C273.102 153.365 273.347 153.438 273.653 153.438C274.129 153.438 274.518 153.307 274.82 153.043C275.123 152.779 275.274 152.384 275.274 151.856V151.363ZM280.177 148.551C280.284 148.551 280.396 148.557 280.514 148.57C280.631 148.58 280.735 148.595 280.826 148.614L280.724 149.366C280.636 149.343 280.538 149.326 280.431 149.312C280.323 149.299 280.222 149.293 280.128 149.293C279.913 149.293 279.71 149.337 279.518 149.425C279.329 149.509 279.163 149.633 279.02 149.796C278.876 149.955 278.764 150.149 278.683 150.377C278.601 150.602 278.561 150.852 278.561 151.129V154H277.745V148.648H278.419L278.507 149.635H278.541C278.652 149.436 278.785 149.256 278.941 149.093C279.098 148.927 279.278 148.795 279.483 148.697C279.692 148.6 279.923 148.551 280.177 148.551Z" fill="white"/>
</svg>
