<svg width="107" height="28" viewBox="0 0 107 28" fill="none" xmlns="http://www.w3.org/2000/svg">
<path d="M11.6801 22.1756C15.1064 23.4397 18.9103 21.6829 20.1762 18.2516C21.4422 14.8203 19.6908 11.014 16.2645 9.74984C12.8381 8.48571 9.0343 10.2425 7.76835 13.6738C6.5024 17.1051 8.25375 20.9115 11.6801 22.1756Z" fill="#FDB913"/>
<path d="M8.25852 12.3439C11.1328 13.4043 14.3238 11.9306 15.3858 9.05213C16.4478 6.17369 14.9786 2.98058 12.1043 1.92012C9.22999 0.859669 6.039 2.33344 4.97701 5.21188C3.91503 8.09033 5.38421 11.2834 8.25852 12.3439Z" fill="#FDB913"/>
<path d="M7.29605 12.1693C9.67129 13.0457 12.3082 11.8278 13.1858 9.44914C14.0634 7.07049 12.8493 4.4318 10.4741 3.55548C8.09885 2.67915 5.46191 3.89703 4.58433 6.27568C3.70674 8.65434 4.92082 11.293 7.29605 12.1693Z" fill="#F15A22"/>
<path d="M10.0302 22.4019C13.4565 23.666 17.2604 21.9092 18.5263 18.4779C19.7923 15.0467 18.0409 11.2403 14.6146 9.97616C11.1882 8.71203 7.38439 10.4689 6.11845 13.9001C4.8525 17.3314 6.60385 21.1378 10.0302 22.4019Z" fill="#F68B1F"/>
<path d="M21.9316 16.6328C21.7363 16.6328 21.6387 16.5254 21.6387 16.3105V8.55273C21.6387 8.33789 21.7363 8.23047 21.9316 8.23047H24.2168C25.5449 8.23047 26.4395 8.44531 26.9004 8.875C27.3613 9.30469 27.5918 9.82227 27.5918 10.4277C27.5918 10.9082 27.4004 11.3164 27.0176 11.6523C26.6348 11.9844 26.2637 12.1797 25.9043 12.2383V12.2559C26.2988 12.291 26.7383 12.4883 27.2227 12.8477C27.7109 13.2031 27.9551 13.6875 27.9551 14.3008C27.9551 14.9648 27.709 15.5195 27.2168 15.9648C26.7285 16.4102 25.8262 16.6328 24.5098 16.6328H21.9316ZM22.7637 15.6719H24.3223C25.1621 15.6719 25.7773 15.5684 26.168 15.3613C26.5586 15.1543 26.7539 14.7891 26.7539 14.2656C26.7539 13.7812 26.5547 13.4062 26.1562 13.1406C25.7617 12.875 25.1504 12.7422 24.3223 12.7422H22.7637V15.6719ZM22.7637 11.8984H24.2344C24.8867 11.8984 25.418 11.7598 25.8281 11.4824C26.2422 11.2012 26.4492 10.8496 26.4492 10.4277C26.4492 10.0254 26.2949 9.71875 25.9863 9.50781C25.6777 9.29688 25.0938 9.19141 24.2344 9.19141H22.7637V11.8984ZM29.4199 14.4883V10.7441C29.4199 10.5684 29.5078 10.4805 29.6836 10.4805H30.1875C30.3633 10.4805 30.4512 10.5684 30.4512 10.7441V14.207C30.4512 14.9727 30.5781 15.459 30.832 15.666C31.0859 15.8691 31.4004 15.9707 31.7754 15.9707C32.2676 15.9707 32.6445 15.8203 32.9062 15.5195C33.168 15.2148 33.2988 14.6953 33.2988 13.9609V10.7441C33.2988 10.5684 33.3867 10.4805 33.5625 10.4805H34.0664C34.2422 10.4805 34.3301 10.5684 34.3301 10.7441V16.3691C34.3301 16.5449 34.2422 16.6328 34.0664 16.6328H33.5742C33.3984 16.6328 33.3105 16.5449 33.3105 16.3691V15.9004H33.2871C33.0332 16.1816 32.7598 16.3906 32.4668 16.5273C32.1738 16.6641 31.8164 16.7324 31.3945 16.7324C30.7109 16.7324 30.2109 16.5332 29.8945 16.1348C29.5781 15.7324 29.4199 15.1836 29.4199 14.4883ZM35.6953 11.2539C35.5195 11.2539 35.4316 11.1855 35.4316 11.0488V10.6855C35.4316 10.5488 35.5195 10.4805 35.6953 10.4805H36.3867V9.95312C36.3867 9.875 36.4062 9.80078 36.4453 9.73047L36.8555 8.98633C36.9297 8.84961 36.9902 8.78125 37.0371 8.78125H37.2422C37.3594 8.78125 37.418 8.84961 37.418 8.98633V10.4805H38.666C38.8418 10.4805 38.9297 10.5488 38.9297 10.6855V11.0488C38.9297 11.1855 38.8418 11.2539 38.666 11.2539H37.418V14.9863C37.418 15.3965 37.4785 15.6641 37.5996 15.7891C37.7246 15.9102 37.873 15.9707 38.0449 15.9707C38.1777 15.9707 38.3359 15.9316 38.5195 15.8535C38.707 15.7754 38.8359 15.709 38.9062 15.6543C38.9766 15.5996 39.0312 15.6172 39.0703 15.707L39.2637 16.1582C39.2949 16.2363 39.2715 16.2988 39.1934 16.3457C39.041 16.4355 38.8184 16.5234 38.5254 16.6094C38.2324 16.6914 37.9395 16.7324 37.6465 16.7324C37.2402 16.7324 36.9277 16.5859 36.709 16.293C36.4941 16 36.3867 15.5859 36.3867 15.0508V11.2539H35.6953ZM40.1367 11.2539C39.9609 11.2539 39.873 11.1855 39.873 11.0488V10.6855C39.873 10.5488 39.9609 10.4805 40.1367 10.4805H40.8281V9.95312C40.8281 9.875 40.8477 9.80078 40.8867 9.73047L41.2969 8.98633C41.3711 8.84961 41.4316 8.78125 41.4785 8.78125H41.6836C41.8008 8.78125 41.8594 8.84961 41.8594 8.98633V10.4805H43.1074C43.2832 10.4805 43.3711 10.5488 43.3711 10.6855V11.0488C43.3711 11.1855 43.2832 11.2539 43.1074 11.2539H41.8594V14.9863C41.8594 15.3965 41.9199 15.6641 42.041 15.7891C42.166 15.9102 42.3145 15.9707 42.4863 15.9707C42.6191 15.9707 42.7773 15.9316 42.9609 15.8535C43.1484 15.7754 43.2773 15.709 43.3477 15.6543C43.418 15.5996 43.4727 15.6172 43.5117 15.707L43.7051 16.1582C43.7363 16.2363 43.7129 16.2988 43.6348 16.3457C43.4824 16.4355 43.2598 16.5234 42.9668 16.6094C42.6738 16.6914 42.3809 16.7324 42.0879 16.7324C41.6816 16.7324 41.3691 16.5859 41.1504 16.293C40.9355 16 40.8281 15.5859 40.8281 15.0508V11.2539H40.1367ZM44.543 13.5566C44.543 12.5879 44.7852 11.8164 45.2695 11.2422C45.7539 10.668 46.4473 10.3809 47.3496 10.3809C48.0996 10.3809 48.7207 10.6445 49.2129 11.1719C49.709 11.6953 49.957 12.5332 49.957 13.6855C49.957 13.8613 49.877 13.9492 49.7168 13.9492H45.6328C45.6992 14.7031 45.9023 15.2285 46.2422 15.5254C46.582 15.8184 46.9668 15.9648 47.3965 15.9648C47.8496 15.9648 48.1973 15.8887 48.4395 15.7363C48.6816 15.584 48.8594 15.4336 48.9727 15.2852C49.0977 15.1211 49.2188 15.0898 49.3359 15.1914L49.6816 15.4902C49.7715 15.5684 49.7715 15.6758 49.6816 15.8125C49.6074 15.9258 49.3945 16.1074 49.043 16.3574C48.6953 16.6074 48.1465 16.7324 47.3965 16.7324C46.4199 16.7324 45.6992 16.4453 45.2344 15.8711C44.7734 15.2969 44.543 14.5254 44.543 13.5566ZM45.6094 13.1875H48.9199C48.9043 12.6406 48.7637 12.1621 48.498 11.752C48.2324 11.3379 47.8418 11.1309 47.3262 11.1309C46.873 11.1309 46.4883 11.2832 46.1719 11.5879C45.8555 11.8887 45.668 12.4219 45.6094 13.1875ZM51.5742 16.6328C51.3984 16.6328 51.3105 16.5449 51.3105 16.3691V10.7441C51.3105 10.5684 51.3984 10.4805 51.5742 10.4805H52.0664C52.2422 10.4805 52.3301 10.5684 52.3301 10.7441V11.4473H52.3535C52.541 11.0957 52.7617 10.8301 53.0156 10.6504C53.2695 10.4707 53.5859 10.3809 53.9648 10.3809C54.2148 10.3809 54.3906 10.4023 54.4922 10.4453C54.582 10.4805 54.6152 10.5391 54.5918 10.6211L54.457 11.1016C54.4375 11.1719 54.3867 11.1992 54.3047 11.1836C54.168 11.1562 54.0391 11.1426 53.918 11.1426C53.4609 11.1426 53.084 11.3496 52.7871 11.7637C52.4902 12.1738 52.3418 12.7344 52.3418 13.4453V16.3691C52.3418 16.5449 52.2539 16.6328 52.0781 16.6328H51.5742ZM55.2363 11.2539C55.0605 11.2539 54.9727 11.1855 54.9727 11.0488V10.6855C54.9727 10.5488 55.0605 10.4805 55.2363 10.4805H55.8633V9.7832C55.8633 9.08398 56.0996 8.59375 56.5723 8.3125C57.0488 8.02734 57.5859 7.88477 58.1836 7.88477C58.7344 7.88477 59.1914 7.95117 59.5547 8.08398C59.918 8.21289 60.1973 8.36523 60.3926 8.54102V16.3691C60.3926 16.5449 60.3047 16.6328 60.1289 16.6328H59.625C59.4492 16.6328 59.3613 16.5449 59.3613 16.3691V8.98633C59.1895 8.85742 58.9961 8.76953 58.7812 8.72266C58.5664 8.67188 58.377 8.64648 58.2129 8.64648C57.916 8.64648 57.6211 8.71484 57.3281 8.85156C57.0391 8.98438 56.8945 9.35156 56.8945 9.95312V10.4805H57.9668C58.1426 10.4805 58.2305 10.5488 58.2305 10.6855V11.0488C58.2305 11.1855 58.1426 11.2539 57.9668 11.2539H56.8945V16.3691C56.8945 16.5449 56.8066 16.6328 56.6309 16.6328H56.127C55.9512 16.6328 55.8633 16.5449 55.8633 16.3691V11.2539H55.2363ZM61.6289 10.7676C61.5586 10.5762 61.6113 10.4805 61.7871 10.4805H62.4258C62.5547 10.4805 62.6426 10.5566 62.6895 10.709L63.9199 14.5762C63.9551 14.6816 64.0078 14.8477 64.0781 15.0742C64.1523 15.2969 64.2051 15.4961 64.2363 15.6719H64.248C64.2793 15.4961 64.3164 15.3379 64.3594 15.1973C64.4062 15.0527 64.4746 14.8457 64.5645 14.5762L65.8066 10.709C65.8574 10.5566 65.9453 10.4805 66.0703 10.4805H66.709C66.8848 10.4805 66.9375 10.5762 66.8672 10.7676L64.8926 16.2754C64.5215 17.3105 64.1895 18.0352 63.8965 18.4492C63.6035 18.8672 63.166 19.0762 62.584 19.0762C62.2793 19.0762 62.0371 19.0312 61.8574 18.9414C61.7754 18.9023 61.748 18.8418 61.7754 18.7598L61.9277 18.2852C61.9551 18.2031 62.0078 18.1797 62.0859 18.2148C62.2461 18.2812 62.4004 18.3145 62.5488 18.3145C62.8223 18.3145 63.0449 18.166 63.2168 17.8691C63.3887 17.5762 63.5254 17.2812 63.627 16.9844L63.7441 16.6387L61.6289 10.7676Z" fill="white"/>
<path d="M30.0918 21.1318C30.0918 19.9925 30.3734 19.1006 30.9365 18.4561C31.5029 17.8083 32.3151 17.4844 33.373 17.4844C33.9915 17.4844 34.5026 17.5902 34.9062 17.8018C35.3099 18.0101 35.5996 18.2965 35.7754 18.6611C35.8665 18.8499 35.8519 18.9801 35.7314 19.0518L35.3457 19.2764C35.2155 19.3512 35.0999 19.2894 34.999 19.0908C34.8916 18.8857 34.7158 18.6937 34.4717 18.5146C34.2275 18.3356 33.8776 18.2461 33.4219 18.2461C32.6081 18.2461 32.0156 18.5 31.6445 19.0078C31.2767 19.5124 31.0928 20.2204 31.0928 21.1318C31.0928 22.0433 31.2767 22.7529 31.6445 23.2607C32.0156 23.7653 32.6081 24.0176 33.4219 24.0176C33.8906 24.0176 34.265 23.9102 34.5449 23.6953C34.8281 23.4805 35.0332 23.2559 35.1602 23.0215C35.2611 22.8327 35.3783 22.7757 35.5117 22.8506L35.917 23.0801C36.0342 23.1484 36.0439 23.2786 35.9463 23.4707C35.7542 23.8451 35.4417 24.1576 35.0088 24.4082C34.5758 24.6556 34.0306 24.7793 33.373 24.7793C32.3151 24.7793 31.5029 24.457 30.9365 23.8125C30.3734 23.1647 30.0918 22.2712 30.0918 21.1318ZM36.9033 22.0693C36.9033 21.3044 37.1051 20.6729 37.5088 20.1748C37.9157 19.6735 38.5098 19.4229 39.291 19.4229C40.0723 19.4229 40.6647 19.6735 41.0684 20.1748C41.4753 20.6729 41.6787 21.3044 41.6787 22.0693C41.6787 22.8343 41.4753 23.4674 41.0684 23.9688C40.6647 24.4668 40.0723 24.7158 39.291 24.7158C38.5098 24.7158 37.9157 24.4668 37.5088 23.9688C37.1051 23.4674 36.9033 22.8343 36.9033 22.0693ZM37.8115 22.0693C37.8115 22.7529 37.9466 23.2591 38.2168 23.5879C38.487 23.9167 38.8451 24.0811 39.291 24.0811C39.737 24.0811 40.0951 23.9167 40.3652 23.5879C40.6354 23.2591 40.7705 22.7529 40.7705 22.0693C40.7705 21.3857 40.6354 20.8796 40.3652 20.5508C40.0951 20.222 39.737 20.0576 39.291 20.0576C38.8451 20.0576 38.487 20.222 38.2168 20.5508C37.9466 20.8796 37.8115 21.3857 37.8115 22.0693ZM43.0068 24.6328C42.8604 24.6328 42.7871 24.5596 42.7871 24.4131V19.7256C42.7871 19.5791 42.8604 19.5059 43.0068 19.5059H43.417C43.5635 19.5059 43.6367 19.5791 43.6367 19.7256V20.1162H43.6562C43.8678 19.8818 44.0957 19.7077 44.3398 19.5938C44.584 19.4798 44.8883 19.4229 45.2529 19.4229C45.8454 19.4229 46.2702 19.5905 46.5273 19.9258C46.7878 20.2578 46.918 20.7135 46.918 21.293V24.4131C46.918 24.5596 46.8447 24.6328 46.6982 24.6328H46.2783C46.1318 24.6328 46.0586 24.5596 46.0586 24.4131V21.5273C46.0586 20.8893 45.9528 20.4857 45.7412 20.3164C45.5296 20.1439 45.2611 20.0576 44.9355 20.0576C44.5124 20.0576 44.1917 20.1846 43.9736 20.4385C43.7555 20.6891 43.6465 21.1204 43.6465 21.7324V24.4131C43.6465 24.5596 43.5732 24.6328 43.4268 24.6328H43.0068ZM48.0947 24.1543C47.9938 24.0599 47.9727 23.972 48.0312 23.8906L48.251 23.583C48.3226 23.4854 48.4284 23.4902 48.5684 23.5977C48.7604 23.7441 48.9736 23.8613 49.208 23.9492C49.4456 24.0371 49.7158 24.0811 50.0186 24.0811C50.1976 24.0811 50.3571 24.0599 50.4971 24.0176C50.637 23.972 50.7591 23.889 50.8633 23.7686C50.9707 23.6481 51.0244 23.487 51.0244 23.2852C51.0244 23.168 50.9984 23.0573 50.9463 22.9531C50.8975 22.849 50.8193 22.766 50.7119 22.7041C50.6077 22.639 50.5052 22.5885 50.4043 22.5527C50.2383 22.4909 50.0723 22.4404 49.9062 22.4014C49.7435 22.359 49.5286 22.2956 49.2617 22.2109C49.0827 22.1556 48.9134 22.0775 48.7539 21.9766C48.5944 21.8724 48.4544 21.7324 48.334 21.5566C48.2168 21.3809 48.1582 21.1383 48.1582 20.8291C48.1582 20.5133 48.2542 20.2415 48.4463 20.0137C48.6383 19.7858 48.8792 19.6312 49.1689 19.5498C49.4587 19.4652 49.7402 19.4229 50.0137 19.4229C50.4173 19.4229 50.7412 19.4701 50.9854 19.5645C51.2327 19.6556 51.446 19.7646 51.625 19.8916C51.7292 19.9665 51.7438 20.0527 51.6689 20.1504L51.4492 20.4434C51.3809 20.5378 51.2751 20.5345 51.1318 20.4336C51.0114 20.349 50.8405 20.2692 50.6191 20.1943C50.3978 20.1195 50.2041 20.082 50.0381 20.082C49.833 20.082 49.6572 20.1048 49.5107 20.1504C49.3643 20.196 49.2454 20.2741 49.1543 20.3848C49.0632 20.4954 49.0176 20.6257 49.0176 20.7754C49.0176 20.8893 49.0355 20.9919 49.0713 21.083C49.1071 21.1709 49.1738 21.2523 49.2715 21.3271C49.3691 21.402 49.5059 21.4622 49.6816 21.5078C49.9551 21.5794 50.2041 21.6445 50.4287 21.7031C50.6566 21.7617 50.8617 21.8333 51.0439 21.918C51.2816 22.0286 51.4639 22.1507 51.5908 22.2842C51.721 22.4176 51.8105 22.5625 51.8594 22.7188C51.9082 22.8717 51.9326 23.0426 51.9326 23.2314C51.9326 23.5798 51.8285 23.8743 51.6201 24.1152C51.415 24.3561 51.1855 24.5173 50.9316 24.5986C50.6777 24.6768 50.3717 24.7158 50.0137 24.7158C49.5286 24.7158 49.112 24.6475 48.7637 24.5107C48.4186 24.3708 48.1956 24.252 48.0947 24.1543ZM52.626 22.0693C52.626 21.262 52.8278 20.6191 53.2314 20.1406C53.6351 19.6621 54.2129 19.4229 54.9648 19.4229C55.5898 19.4229 56.1074 19.6426 56.5176 20.082C56.931 20.5182 57.1377 21.2165 57.1377 22.1768C57.1377 22.3232 57.071 22.3965 56.9375 22.3965H53.5342C53.5895 23.0247 53.7588 23.4626 54.042 23.71C54.3252 23.9541 54.6458 24.0762 55.0039 24.0762C55.3815 24.0762 55.6712 24.0127 55.873 23.8857C56.0749 23.7588 56.223 23.6335 56.3174 23.5098C56.4215 23.373 56.5225 23.347 56.6201 23.4316L56.9082 23.6807C56.9831 23.7458 56.9831 23.8353 56.9082 23.9492C56.8464 24.0436 56.6689 24.195 56.376 24.4033C56.0863 24.6117 55.6289 24.7158 55.0039 24.7158C54.1901 24.7158 53.5895 24.4766 53.2021 23.998C52.818 23.5195 52.626 22.8766 52.626 22.0693ZM53.5146 21.7617H56.2734C56.2604 21.306 56.1432 20.9072 55.9219 20.5654C55.7005 20.2204 55.375 20.0479 54.9453 20.0479C54.5677 20.0479 54.2471 20.1748 53.9834 20.4287C53.7197 20.6794 53.5635 21.1237 53.5146 21.7617ZM58.4854 24.6328C58.3389 24.6328 58.2656 24.5596 58.2656 24.4131V19.7256C58.2656 19.5791 58.3389 19.5059 58.4854 19.5059H58.8955C59.042 19.5059 59.1152 19.5791 59.1152 19.7256V20.3115H59.1348C59.291 20.0186 59.4749 19.7972 59.6865 19.6475C59.8981 19.4977 60.1618 19.4229 60.4775 19.4229C60.6859 19.4229 60.8324 19.4408 60.917 19.4766C60.9919 19.5059 61.0195 19.5547 61 19.623L60.8877 20.0234C60.8714 20.082 60.8291 20.1048 60.7607 20.0918C60.6468 20.069 60.5394 20.0576 60.4385 20.0576C60.0576 20.0576 59.7435 20.2301 59.4961 20.5752C59.2487 20.917 59.125 21.3841 59.125 21.9766V24.4131C59.125 24.5596 59.0518 24.6328 58.9053 24.6328H58.4854ZM61.4004 19.7451C61.3451 19.5856 61.389 19.5059 61.5322 19.5059H62.0645C62.1686 19.5059 62.2419 19.5693 62.2842 19.6963L63.3193 22.9189C63.404 23.1826 63.4609 23.3649 63.4902 23.4658C63.5228 23.5635 63.5521 23.6855 63.5781 23.832H63.5977C63.6237 23.6855 63.6514 23.5635 63.6807 23.4658C63.7132 23.3649 63.7718 23.1826 63.8564 22.9189L64.8916 19.6963C64.9339 19.5693 65.0072 19.5059 65.1113 19.5059H65.6436C65.7868 19.5059 65.8307 19.5856 65.7754 19.7451L64.1738 24.335C64.1055 24.5335 64.0176 24.6328 63.9102 24.6328H63.2656C63.1582 24.6328 63.0703 24.5335 63.002 24.335L61.4004 19.7451ZM66.3271 22.0693C66.3271 21.262 66.529 20.6191 66.9326 20.1406C67.3363 19.6621 67.9141 19.4229 68.666 19.4229C69.291 19.4229 69.8086 19.6426 70.2188 20.082C70.6322 20.5182 70.8389 21.2165 70.8389 22.1768C70.8389 22.3232 70.7721 22.3965 70.6387 22.3965H67.2354C67.2907 23.0247 67.46 23.4626 67.7432 23.71C68.0264 23.9541 68.347 24.0762 68.7051 24.0762C69.0827 24.0762 69.3724 24.0127 69.5742 23.8857C69.776 23.7588 69.9242 23.6335 70.0186 23.5098C70.1227 23.373 70.2236 23.347 70.3213 23.4316L70.6094 23.6807C70.6842 23.7458 70.6842 23.8353 70.6094 23.9492C70.5475 24.0436 70.3701 24.195 70.0771 24.4033C69.7874 24.6117 69.3301 24.7158 68.7051 24.7158C67.8913 24.7158 67.2907 24.4766 66.9033 23.998C66.5192 23.5195 66.3271 22.8766 66.3271 22.0693ZM67.2158 21.7617H69.9746C69.9616 21.306 69.8444 20.9072 69.623 20.5654C69.4017 20.2204 69.0762 20.0479 68.6465 20.0479C68.2689 20.0479 67.9482 20.1748 67.6846 20.4287C67.4209 20.6794 67.2646 21.1237 67.2158 21.7617ZM71.7178 20.1504C71.5713 20.1504 71.498 20.0934 71.498 19.9795V19.6768C71.498 19.5628 71.5713 19.5059 71.7178 19.5059H72.2939V19.0664C72.2939 19.0013 72.3102 18.9395 72.3428 18.8809L72.6846 18.2607C72.7464 18.1468 72.7969 18.0898 72.8359 18.0898H73.0068C73.1045 18.0898 73.1533 18.1468 73.1533 18.2607V19.5059H74.1934C74.3398 19.5059 74.4131 19.5628 74.4131 19.6768V19.9795C74.4131 20.0934 74.3398 20.1504 74.1934 20.1504H73.1533V23.2607C73.1533 23.6025 73.2038 23.8255 73.3047 23.9297C73.4089 24.0306 73.5326 24.0811 73.6758 24.0811C73.7865 24.0811 73.9183 24.0485 74.0713 23.9834C74.2275 23.9183 74.335 23.863 74.3936 23.8174C74.4521 23.7718 74.4977 23.7865 74.5303 23.8613L74.6914 24.2373C74.7174 24.3024 74.6979 24.3545 74.6328 24.3936C74.5059 24.4684 74.3203 24.5417 74.0762 24.6133C73.832 24.6816 73.5879 24.7158 73.3438 24.7158C73.0052 24.7158 72.7448 24.5938 72.5625 24.3496C72.3835 24.1055 72.2939 23.7604 72.2939 23.3145V20.1504H71.7178ZM75.8877 24.6328C75.7412 24.6328 75.668 24.5596 75.668 24.4131V19.7256C75.668 19.5791 75.7412 19.5059 75.8877 19.5059H76.3076C76.4541 19.5059 76.5273 19.5791 76.5273 19.7256V24.4131C76.5273 24.5596 76.4541 24.6328 76.3076 24.6328H75.8877ZM75.8877 18.5781C75.7412 18.5781 75.668 18.5049 75.668 18.3584V17.9385C75.668 17.792 75.7412 17.7188 75.8877 17.7188H76.3076C76.4541 17.7188 76.5273 17.792 76.5273 17.9385V18.3584C76.5273 18.5049 76.4541 18.5781 76.3076 18.5781H75.8877ZM77.6357 22.0693C77.6357 21.3044 77.8376 20.6729 78.2412 20.1748C78.6481 19.6735 79.2422 19.4229 80.0234 19.4229C80.8047 19.4229 81.3971 19.6735 81.8008 20.1748C82.2077 20.6729 82.4111 21.3044 82.4111 22.0693C82.4111 22.8343 82.2077 23.4674 81.8008 23.9688C81.3971 24.4668 80.8047 24.7158 80.0234 24.7158C79.2422 24.7158 78.6481 24.4668 78.2412 23.9688C77.8376 23.4674 77.6357 22.8343 77.6357 22.0693ZM78.5439 22.0693C78.5439 22.7529 78.679 23.2591 78.9492 23.5879C79.2194 23.9167 79.5775 24.0811 80.0234 24.0811C80.4694 24.0811 80.8275 23.9167 81.0977 23.5879C81.3678 23.2591 81.5029 22.7529 81.5029 22.0693C81.5029 21.3857 81.3678 20.8796 81.0977 20.5508C80.8275 20.222 80.4694 20.0576 80.0234 20.0576C79.5775 20.0576 79.2194 20.222 78.9492 20.5508C78.679 20.8796 78.5439 21.3857 78.5439 22.0693ZM83.7393 24.6328C83.5928 24.6328 83.5195 24.5596 83.5195 24.4131V19.7256C83.5195 19.5791 83.5928 19.5059 83.7393 19.5059H84.1494C84.2959 19.5059 84.3691 19.5791 84.3691 19.7256V20.1162H84.3887C84.6003 19.8818 84.8281 19.7077 85.0723 19.5938C85.3164 19.4798 85.6208 19.4229 85.9854 19.4229C86.5778 19.4229 87.0026 19.5905 87.2598 19.9258C87.5202 20.2578 87.6504 20.7135 87.6504 21.293V24.4131C87.6504 24.5596 87.5771 24.6328 87.4307 24.6328H87.0107C86.8643 24.6328 86.791 24.5596 86.791 24.4131V21.5273C86.791 20.8893 86.6852 20.4857 86.4736 20.3164C86.262 20.1439 85.9935 20.0576 85.668 20.0576C85.2448 20.0576 84.9242 20.1846 84.7061 20.4385C84.488 20.6891 84.3789 21.1204 84.3789 21.7324V24.4131C84.3789 24.5596 84.3057 24.6328 84.1592 24.6328H83.7393Z" fill="white"/>
</svg>
