<svg width="44" height="41" viewBox="0 0 44 41" fill="none" xmlns="http://www.w3.org/2000/svg">
<ellipse cx="22" cy="20.5" rx="22" ry="20.5" fill="#DD403A"/>
<path d="M27.6797 29H16.0781V26.9258L20.5195 22.4258C21.3789 21.5508 22.0859 20.7969 22.6406 20.1641C23.1953 19.5234 23.6055 18.918 23.8711 18.3477C24.1445 17.7773 24.2812 17.1562 24.2812 16.4844C24.2812 15.6562 24.043 15.0312 23.5664 14.6094C23.0898 14.1797 22.4609 13.9648 21.6797 13.9648C20.9375 13.9648 20.25 14.1133 19.6172 14.4102C18.9922 14.6992 18.3438 15.1133 17.6719 15.6523L16.1602 13.8359C16.6367 13.4297 17.1445 13.0586 17.6836 12.7227C18.2305 12.3867 18.8398 12.1211 19.5117 11.9258C20.1836 11.7227 20.9492 11.6211 21.8086 11.6211C22.8945 11.6211 23.832 11.8164 24.6211 12.207C25.4102 12.5898 26.0156 13.125 26.4375 13.8125C26.8672 14.5 27.082 15.3008 27.082 16.2148C27.082 17.1367 26.8984 17.9883 26.5312 18.7695C26.1641 19.5508 25.6406 20.3242 24.9609 21.0898C24.2812 21.8477 23.4727 22.6719 22.5352 23.5625L19.5703 26.457V26.5859H27.6797V29Z" fill="white"/>
</svg>
