<svg width="44" height="41" viewBox="0 0 44 41" fill="none" xmlns="http://www.w3.org/2000/svg">
<ellipse cx="22" cy="20.5" rx="22" ry="20.5" fill="#DD403A"/>
<path d="M27.0234 15.7812C27.0234 16.5547 26.8672 17.2266 26.5547 17.7969C26.2422 18.3672 25.8125 18.8359 25.2656 19.2031C24.7266 19.5625 24.1016 19.8203 23.3906 19.9766V20.0586C24.7578 20.2305 25.7891 20.6602 26.4844 21.3477C27.1875 22.0352 27.5391 22.9453 27.5391 24.0781C27.5391 25.0703 27.3008 25.957 26.8242 26.7383C26.3477 27.5117 25.6172 28.1211 24.6328 28.5664C23.6484 29.0117 22.3828 29.2344 20.8359 29.2344C19.9062 29.2344 19.043 29.1602 18.2461 29.0117C17.457 28.8633 16.707 28.625 15.9961 28.2969V25.8477C16.7227 26.207 17.4961 26.4844 18.3164 26.6797C19.1367 26.875 19.9141 26.9727 20.6484 26.9727C22.0781 26.9727 23.0977 26.707 23.707 26.1758C24.3164 25.6367 24.6211 24.8945 24.6211 23.9492C24.6211 23.3398 24.4609 22.8398 24.1406 22.4492C23.8281 22.0586 23.3398 21.7656 22.6758 21.5703C22.0195 21.375 21.1719 21.2773 20.1328 21.2773H18.6211V19.0625H20.1445C21.1367 19.0625 21.9336 18.9453 22.5352 18.7109C23.1367 18.4688 23.5703 18.1367 23.8359 17.7148C24.1094 17.293 24.2461 16.8008 24.2461 16.2383C24.2461 15.5039 24.0078 14.9336 23.5312 14.5273C23.0547 14.1133 22.3477 13.9062 21.4102 13.9062C20.832 13.9062 20.3047 13.9727 19.8281 14.1055C19.3594 14.2383 18.9258 14.4062 18.5273 14.6094C18.1289 14.8125 17.75 15.0312 17.3906 15.2656L16.0664 13.3555C16.7148 12.8711 17.4883 12.4609 18.3867 12.125C19.2852 11.7891 20.332 11.6211 21.5273 11.6211C23.2852 11.6211 24.6406 12 25.5938 12.7578C26.5469 13.5078 27.0234 14.5156 27.0234 15.7812Z" fill="white"/>
</svg>
