<svg width="44" height="41" viewBox="0 0 44 41" fill="none" xmlns="http://www.w3.org/2000/svg">
<ellipse cx="22" cy="20.5" rx="22" ry="20.5" fill="#DD403A"/>
<path d="M28.3008 25.2383H25.9805V29H23.2617V25.2383H15.4688V23.1523L23.2969 11.8203H25.9805V22.9531H28.3008V25.2383ZM23.2617 22.9531V18.6992C23.2617 18.3477 23.2656 17.9922 23.2734 17.6328C23.2891 17.2656 23.3047 16.9141 23.3203 16.5781C23.3359 16.2422 23.3516 15.9336 23.3672 15.6523C23.3828 15.3633 23.3945 15.125 23.4023 14.9375H23.3086C23.1602 15.25 22.9961 15.5703 22.8164 15.8984C22.6367 16.2188 22.4453 16.5312 22.2422 16.8359L18.0234 22.9531H23.2617Z" fill="white"/>
</svg>
